<?xml version="1.0" encoding="UTF-8" standalone="no"?>
<!DOCTYPE svg PUBLIC "-//W3C//DTD SVG 1.1//EN"
 "http://www.w3.org/Graphics/SVG/1.1/DTD/svg11.dtd">
<!-- Generated by graphviz version 12.2.1 (20241206.2353)
 -->
<!-- Pages: 1 -->
<svg width="1345pt" height="252pt"
 viewBox="0.00 0.00 1344.76 251.50" xmlns="http://www.w3.org/2000/svg" xmlns:xlink="http://www.w3.org/1999/xlink">
<g id="graph0" class="graph" transform="scale(1 1) rotate(0) translate(4 247.5)">
<polygon fill="white" stroke="none" points="-4,4 -4,-247.5 1340.76,-247.5 1340.76,4 -4,4"/>
<text text-anchor="middle" x="668.38" y="-220.5" font-family="Times New Roman,serif" font-size="20.00">Stroke Type: TIA</text>
<!-- exit -->
<g id="node1" class="node">
<title>exit</title>
<path fill="none" stroke="black" d="M1324.76,-106C1324.76,-106 1294.76,-106 1294.76,-106 1288.76,-106 1282.76,-100 1282.76,-94 1282.76,-94 1282.76,-77 1282.76,-77 1282.76,-71 1288.76,-65 1294.76,-65 1294.76,-65 1324.76,-65 1324.76,-65 1330.76,-65 1336.76,-71 1336.76,-77 1336.76,-77 1336.76,-94 1336.76,-94 1336.76,-100 1330.76,-106 1324.76,-106"/>
<text text-anchor="middle" x="1309.76" y="-88.7" font-family="Times New Roman,serif" font-size="14.00">exit</text>
<text text-anchor="middle" x="1309.76" y="-72.2" font-family="Times New Roman,serif" font-size="14.00">n=336</text>
</g>
<!-- sdec admit -->
<g id="node2" class="node">
<title>sdec admit</title>
<path fill="none" stroke="black" d="M308.76,-93C308.76,-93 257.51,-93 257.51,-93 251.51,-93 245.51,-87 245.51,-81 245.51,-81 245.51,-64 245.51,-64 245.51,-58 251.51,-52 257.51,-52 257.51,-52 308.76,-52 308.76,-52 314.76,-52 320.76,-58 320.76,-64 320.76,-64 320.76,-81 320.76,-81 320.76,-87 314.76,-93 308.76,-93"/>
<text text-anchor="middle" x="283.14" y="-75.7" font-family="Times New Roman,serif" font-size="14.00">sdec admit</text>
<text text-anchor="middle" x="283.14" y="-59.2" font-family="Times New Roman,serif" font-size="14.00">n=140</text>
</g>
<!-- sdec discharge -->
<g id="node3" class="node">
<title>sdec discharge</title>
<path fill="none" stroke="black" d="M524.26,-93C524.26,-93 452.76,-93 452.76,-93 446.76,-93 440.76,-87 440.76,-81 440.76,-81 440.76,-64 440.76,-64 440.76,-58 446.76,-52 452.76,-52 452.76,-52 524.26,-52 524.26,-52 530.26,-52 536.26,-58 536.26,-64 536.26,-64 536.26,-81 536.26,-81 536.26,-87 530.26,-93 524.26,-93"/>
<text text-anchor="middle" x="488.51" y="-75.7" font-family="Times New Roman,serif" font-size="14.00">sdec discharge</text>
<text text-anchor="middle" x="488.51" y="-59.2" font-family="Times New Roman,serif" font-size="14.00">n=140</text>
</g>
<!-- sdec admit&#45;&gt;sdec discharge -->
<g id="edge4" class="edge">
<title>sdec admit&#45;&gt;sdec discharge</title>
<path fill="none" stroke="black" stroke-width="4.29" d="M320.97,-72.5C349.79,-72.5 390.54,-72.5 424.52,-72.5"/>
<polygon fill="black" stroke="black" stroke-width="4.29" points="424.47,-76.25 434.47,-72.5 424.47,-68.75 424.47,-76.25"/>
<text text-anchor="middle" x="380.76" y="-108.7" font-family="Times New Roman,serif" font-size="14.00">n=140</text>
<text text-anchor="middle" x="380.76" y="-92.2" font-family="Times New Roman,serif" font-size="14.00">p=1.00</text>
<text text-anchor="middle" x="380.76" y="-75.7" font-family="Times New Roman,serif" font-size="14.00">mean=0.2 days</text>
</g>
<!-- sdec discharge&#45;&gt;exit -->
<g id="edge5" class="edge">
<title>sdec discharge&#45;&gt;exit</title>
<path fill="none" stroke="black" stroke-width="3.81" d="M536.49,-77.12C578.56,-80.86 641.97,-85.5 697.26,-85.5 697.26,-85.5 697.26,-85.5 1114.51,-85.5 1166.92,-85.5 1227.28,-85.5 1266.63,-85.5"/>
<polygon fill="black" stroke="black" stroke-width="3.81" points="1266.6,-89 1276.6,-85.5 1266.6,-82 1266.6,-89"/>
<text text-anchor="middle" x="902.26" y="-121.7" font-family="Times New Roman,serif" font-size="14.00">n=123</text>
<text text-anchor="middle" x="902.26" y="-105.2" font-family="Times New Roman,serif" font-size="14.00">p=0.88</text>
<text text-anchor="middle" x="902.26" y="-88.7" font-family="Times New Roman,serif" font-size="14.00">mean=0.0 days</text>
</g>
<!-- ward q start -->
<g id="node6" class="node">
<title>ward q start</title>
<path fill="none" stroke="black" d="M726.51,-41C726.51,-41 670.01,-41 670.01,-41 664.01,-41 658.01,-35 658.01,-29 658.01,-29 658.01,-12 658.01,-12 658.01,-6 664.01,0 670.01,0 670.01,0 726.51,0 726.51,0 732.51,0 738.51,-6 738.51,-12 738.51,-12 738.51,-29 738.51,-29 738.51,-35 732.51,-41 726.51,-41"/>
<text text-anchor="middle" x="698.26" y="-23.7" font-family="Times New Roman,serif" font-size="14.00">ward q start</text>
<text text-anchor="middle" x="698.26" y="-7.2" font-family="Times New Roman,serif" font-size="14.00">n=48</text>
</g>
<!-- sdec discharge&#45;&gt;ward q start -->
<g id="edge6" class="edge">
<title>sdec discharge&#45;&gt;ward q start</title>
<path fill="none" stroke="black" stroke-width="0.8" d="M509.25,-51.51C521.1,-40.45 537.17,-27.98 554.26,-22 583.61,-11.73 618.47,-11.15 646.42,-13.24"/>
<polygon fill="black" stroke="black" stroke-width="0.8" points="646.07,-16.72 656.35,-14.13 646.7,-9.75 646.07,-16.72"/>
<text text-anchor="middle" x="596.26" y="-58.2" font-family="Times New Roman,serif" font-size="14.00">n=17</text>
<text text-anchor="middle" x="596.26" y="-41.7" font-family="Times New Roman,serif" font-size="14.00">p=0.12</text>
<text text-anchor="middle" x="596.26" y="-25.2" font-family="Times New Roman,serif" font-size="14.00">mean=0.0 days</text>
</g>
<!-- ward admit -->
<g id="node4" class="node">
<title>ward admit</title>
<path fill="none" stroke="black" d="M929.39,-41C929.39,-41 875.14,-41 875.14,-41 869.14,-41 863.14,-35 863.14,-29 863.14,-29 863.14,-12 863.14,-12 863.14,-6 869.14,0 875.14,0 875.14,0 929.39,0 929.39,0 935.39,0 941.39,-6 941.39,-12 941.39,-12 941.39,-29 941.39,-29 941.39,-35 935.39,-41 929.39,-41"/>
<text text-anchor="middle" x="902.26" y="-23.7" font-family="Times New Roman,serif" font-size="14.00">ward admit</text>
<text text-anchor="middle" x="902.26" y="-7.2" font-family="Times New Roman,serif" font-size="14.00">n=48</text>
</g>
<!-- ward discharge -->
<g id="node5" class="node">
<title>ward discharge</title>
<path fill="none" stroke="black" d="M1150.76,-41C1150.76,-41 1076.26,-41 1076.26,-41 1070.26,-41 1064.26,-35 1064.26,-29 1064.26,-29 1064.26,-12 1064.26,-12 1064.26,-6 1070.26,0 1076.26,0 1076.26,0 1150.76,0 1150.76,0 1156.76,0 1162.76,-6 1162.76,-12 1162.76,-12 1162.76,-29 1162.76,-29 1162.76,-35 1156.76,-41 1150.76,-41"/>
<text text-anchor="middle" x="1113.51" y="-23.7" font-family="Times New Roman,serif" font-size="14.00">ward discharge</text>
<text text-anchor="middle" x="1113.51" y="-7.2" font-family="Times New Roman,serif" font-size="14.00">n=48</text>
</g>
<!-- ward admit&#45;&gt;ward discharge -->
<g id="edge7" class="edge">
<title>ward admit&#45;&gt;ward discharge</title>
<path fill="none" stroke="black" stroke-width="1.68" d="M941.64,-20.5C972.46,-20.5 1016.3,-20.5 1051.86,-20.5"/>
<polygon fill="black" stroke="black" stroke-width="1.68" points="1051.52,-24 1061.52,-20.5 1051.52,-17 1051.52,-24"/>
<text text-anchor="middle" x="1004.26" y="-56.7" font-family="Times New Roman,serif" font-size="14.00">n=48</text>
<text text-anchor="middle" x="1004.26" y="-40.2" font-family="Times New Roman,serif" font-size="14.00">p=1.00</text>
<text text-anchor="middle" x="1004.26" y="-23.7" font-family="Times New Roman,serif" font-size="14.00">mean=0.9 days</text>
</g>
<!-- ward discharge&#45;&gt;exit -->
<g id="edge8" class="edge">
<title>ward discharge&#45;&gt;exit</title>
<path fill="none" stroke="black" stroke-width="1.68" d="M1162.97,-10.09C1193.86,-5.99 1233.76,-5.57 1264.76,-22 1277.74,-28.88 1287.66,-41.49 1294.77,-53.67"/>
<polygon fill="black" stroke="black" stroke-width="1.68" points="1291.57,-55.1 1299.33,-62.31 1297.76,-51.83 1291.57,-55.1"/>
<text text-anchor="middle" x="1222.76" y="-58.2" font-family="Times New Roman,serif" font-size="14.00">n=48</text>
<text text-anchor="middle" x="1222.76" y="-41.7" font-family="Times New Roman,serif" font-size="14.00">p=1.00</text>
<text text-anchor="middle" x="1222.76" y="-25.2" font-family="Times New Roman,serif" font-size="14.00">mean=0.0 days</text>
</g>
<!-- ward q start&#45;&gt;ward admit -->
<g id="edge9" class="edge">
<title>ward q start&#45;&gt;ward admit</title>
<path fill="none" stroke="black" stroke-width="1.68" d="M738.69,-20.5C770.7,-20.5 816.04,-20.5 850.71,-20.5"/>
<polygon fill="black" stroke="black" stroke-width="1.68" points="850.42,-24 860.42,-20.5 850.42,-17 850.42,-24"/>
<text text-anchor="middle" x="800.26" y="-56.7" font-family="Times New Roman,serif" font-size="14.00">n=48</text>
<text text-anchor="middle" x="800.26" y="-40.2" font-family="Times New Roman,serif" font-size="14.00">p=1.00</text>
<text text-anchor="middle" x="800.26" y="-23.7" font-family="Times New Roman,serif" font-size="14.00">mean=0.0 days</text>
</g>
<!-- ct or ctp scan
end -->
<g id="node7" class="node">
<title>ct or ctp scan
end</title>
<ellipse fill="none" stroke="black" cx="62.76" cy="-72.5" rx="62.76" ry="28.99"/>
<text text-anchor="middle" x="62.76" y="-75.7" font-family="Times New Roman,serif" font-size="14.00">ct or ctp scan</text>
<text text-anchor="middle" x="62.76" y="-59.2" font-family="Times New Roman,serif" font-size="14.00">end</text>
</g>
<!-- ct or ctp scan
end&#45;&gt;exit -->
<g id="edge1" class="edge">
<title>ct or ctp scan
end&#45;&gt;exit</title>
<path fill="none" stroke="black" stroke-width="5" d="M95.28,-97.43C109.39,-107.62 126.62,-118.8 143.51,-126.5 201.53,-152.97 218.37,-163.5 282.14,-163.5 282.14,-163.5 282.14,-163.5 1114.51,-163.5 1171.1,-163.5 1230.72,-134.64 1268.74,-112.03"/>
<polygon fill="black" stroke="black" stroke-width="5" points="1270.91,-115.83 1277.14,-106.86 1266.33,-108.38 1270.91,-115.83"/>
<text text-anchor="middle" x="698.26" y="-199.7" font-family="Times New Roman,serif" font-size="14.00">n=165</text>
<text text-anchor="middle" x="698.26" y="-183.2" font-family="Times New Roman,serif" font-size="14.00">p=0.49</text>
<text text-anchor="middle" x="698.26" y="-166.7" font-family="Times New Roman,serif" font-size="14.00">mean=0.0 days</text>
</g>
<!-- ct or ctp scan
end&#45;&gt;sdec admit -->
<g id="edge2" class="edge">
<title>ct or ctp scan
end&#45;&gt;sdec admit</title>
<path fill="none" stroke="black" stroke-width="4.29" d="M125.75,-72.5C158.46,-72.5 198.16,-72.5 229.38,-72.5"/>
<polygon fill="black" stroke="black" stroke-width="4.29" points="229.2,-76.25 239.2,-72.5 229.2,-68.75 229.2,-76.25"/>
<text text-anchor="middle" x="185.51" y="-108.7" font-family="Times New Roman,serif" font-size="14.00">n=140</text>
<text text-anchor="middle" x="185.51" y="-92.2" font-family="Times New Roman,serif" font-size="14.00">p=0.42</text>
<text text-anchor="middle" x="185.51" y="-75.7" font-family="Times New Roman,serif" font-size="14.00">mean=0.0 days</text>
</g>
<!-- ct or ctp scan
end&#45;&gt;ward q start -->
<g id="edge3" class="edge">
<title>ct or ctp scan
end&#45;&gt;ward q start</title>
<path fill="none" stroke="black" stroke-width="1.2" stroke-dasharray="5,2" d="M119.21,-59.28C174.49,-46.68 261.99,-28.29 338.76,-19 433.96,-7.48 458.4,-10.83 554.26,-8.5 591.58,-7.59 601.12,-4.76 638.26,-8.5 640.84,-8.76 643.47,-9.08 646.12,-9.45"/>
<polygon fill="black" stroke="black" stroke-width="1.2" points="645.53,-12.9 655.96,-11.04 646.65,-5.99 645.53,-12.9"/>
<text text-anchor="middle" x="380.76" y="-55.2" font-family="Times New Roman,serif" font-size="14.00">n=31</text>
<text text-anchor="middle" x="380.76" y="-38.7" font-family="Times New Roman,serif" font-size="14.00">p=0.09</text>
<text text-anchor="middle" x="380.76" y="-22.2" font-family="Times New Roman,serif" font-size="14.00">mean=0.0 days</text>
</g>
</g>
</svg>
