<?xml version="1.0" encoding="UTF-8" standalone="no"?>
<!DOCTYPE svg PUBLIC "-//W3C//DTD SVG 1.1//EN"
 "http://www.w3.org/Graphics/SVG/1.1/DTD/svg11.dtd">
<!-- Generated by graphviz version 12.2.1 (20241206.2353)
 -->
<!-- Pages: 1 -->
<svg width="2236pt" height="252pt"
 viewBox="0.00 0.00 2236.00 251.50" xmlns="http://www.w3.org/2000/svg" xmlns:xlink="http://www.w3.org/1999/xlink">
<g id="graph0" class="graph" transform="scale(1 1) rotate(0) translate(4 247.5)">
<polygon fill="white" stroke="none" points="-4,4 -4,-247.5 2232,-247.5 2232,4 -4,4"/>
<text text-anchor="middle" x="1114" y="-220.5" font-family="Times New Roman,serif" font-size="20.00">Stroke Type: TIA</text>
<!-- clock start -->
<g id="node1" class="node">
<title>clock start</title>
<path fill="none" stroke="black" d="M60.25,-93C60.25,-93 12,-93 12,-93 6,-93 0,-87 0,-81 0,-81 0,-64 0,-64 0,-58 6,-52 12,-52 12,-52 60.25,-52 60.25,-52 66.25,-52 72.25,-58 72.25,-64 72.25,-64 72.25,-81 72.25,-81 72.25,-87 66.25,-93 60.25,-93"/>
<text text-anchor="middle" x="36.12" y="-75.7" font-family="Times New Roman,serif" font-size="14.00">clock start</text>
<text text-anchor="middle" x="36.12" y="-59.2" font-family="Times New Roman,serif" font-size="14.00">n=336</text>
</g>
<!-- nurse q start -->
<g id="node5" class="node">
<title>nurse q start</title>
<path fill="none" stroke="black" d="M257,-93C257,-93 198.25,-93 198.25,-93 192.25,-93 186.25,-87 186.25,-81 186.25,-81 186.25,-64 186.25,-64 186.25,-58 192.25,-52 198.25,-52 198.25,-52 257,-52 257,-52 263,-52 269,-58 269,-64 269,-64 269,-81 269,-81 269,-87 263,-93 257,-93"/>
<text text-anchor="middle" x="227.62" y="-75.7" font-family="Times New Roman,serif" font-size="14.00">nurse q start</text>
<text text-anchor="middle" x="227.62" y="-59.2" font-family="Times New Roman,serif" font-size="14.00">n=336</text>
</g>
<!-- clock start&#45;&gt;nurse q start -->
<g id="edge1" class="edge">
<title>clock start&#45;&gt;nurse q start</title>
<path fill="none" stroke="black" stroke-width="5" d="M72.32,-72.5C99.76,-72.5 138.4,-72.5 170.14,-72.5"/>
<polygon fill="black" stroke="black" stroke-width="5" points="169.79,-76.88 179.79,-72.5 169.79,-68.13 169.79,-76.88"/>
<text text-anchor="middle" x="129.25" y="-108.7" font-family="Times New Roman,serif" font-size="14.00">n=336</text>
<text text-anchor="middle" x="129.25" y="-92.2" font-family="Times New Roman,serif" font-size="14.00">p=1.00</text>
<text text-anchor="middle" x="129.25" y="-75.7" font-family="Times New Roman,serif" font-size="14.00">max=0.0 days</text>
</g>
<!-- ct or ctp scan
end -->
<g id="node2" class="node">
<title>ct or ctp scan
end</title>
<path fill="none" stroke="black" d="M1050,-101.25C1050,-101.25 985.25,-101.25 985.25,-101.25 979.25,-101.25 973.25,-95.25 973.25,-89.25 973.25,-89.25 973.25,-55.75 973.25,-55.75 973.25,-49.75 979.25,-43.75 985.25,-43.75 985.25,-43.75 1050,-43.75 1050,-43.75 1056,-43.75 1062,-49.75 1062,-55.75 1062,-55.75 1062,-89.25 1062,-89.25 1062,-95.25 1056,-101.25 1050,-101.25"/>
<text text-anchor="middle" x="1017.62" y="-83.95" font-family="Times New Roman,serif" font-size="14.00">ct or ctp scan</text>
<text text-anchor="middle" x="1017.62" y="-67.45" font-family="Times New Roman,serif" font-size="14.00">end</text>
<text text-anchor="middle" x="1017.62" y="-50.95" font-family="Times New Roman,serif" font-size="14.00">n=336</text>
</g>
<!-- exit -->
<g id="node4" class="node">
<title>exit</title>
<path fill="none" stroke="black" d="M2216,-106C2216,-106 2186,-106 2186,-106 2180,-106 2174,-100 2174,-94 2174,-94 2174,-77 2174,-77 2174,-71 2180,-65 2186,-65 2186,-65 2216,-65 2216,-65 2222,-65 2228,-71 2228,-77 2228,-77 2228,-94 2228,-94 2228,-100 2222,-106 2216,-106"/>
<text text-anchor="middle" x="2201" y="-88.7" font-family="Times New Roman,serif" font-size="14.00">exit</text>
<text text-anchor="middle" x="2201" y="-72.2" font-family="Times New Roman,serif" font-size="14.00">n=336</text>
</g>
<!-- ct or ctp scan
end&#45;&gt;exit -->
<g id="edge2" class="edge">
<title>ct or ctp scan
end&#45;&gt;exit</title>
<path fill="none" stroke="black" stroke-width="2.75" d="M1046.24,-101.52C1056.15,-110.6 1067.9,-119.94 1080,-126.5 1133.8,-155.67 1151.43,-163.5 1212.62,-163.5 1212.62,-163.5 1212.62,-163.5 2011.75,-163.5 2067.21,-163.5 2125.35,-134.25 2162.08,-111.57"/>
<polygon fill="black" stroke="black" stroke-width="2.75" points="2163.61,-114.74 2170.17,-106.42 2159.85,-108.84 2163.61,-114.74"/>
<text text-anchor="middle" x="1615" y="-199.7" font-family="Times New Roman,serif" font-size="14.00">n=165</text>
<text text-anchor="middle" x="1615" y="-183.2" font-family="Times New Roman,serif" font-size="14.00">p=0.49</text>
<text text-anchor="middle" x="1615" y="-166.7" font-family="Times New Roman,serif" font-size="14.00">max=0.0 days</text>
</g>
<!-- sdec admit -->
<g id="node8" class="node">
<title>sdec admit</title>
<path fill="none" stroke="black" d="M1239.25,-93C1239.25,-93 1188,-93 1188,-93 1182,-93 1176,-87 1176,-81 1176,-81 1176,-64 1176,-64 1176,-58 1182,-52 1188,-52 1188,-52 1239.25,-52 1239.25,-52 1245.25,-52 1251.25,-58 1251.25,-64 1251.25,-64 1251.25,-81 1251.25,-81 1251.25,-87 1245.25,-93 1239.25,-93"/>
<text text-anchor="middle" x="1213.62" y="-75.7" font-family="Times New Roman,serif" font-size="14.00">sdec admit</text>
<text text-anchor="middle" x="1213.62" y="-59.2" font-family="Times New Roman,serif" font-size="14.00">n=140</text>
</g>
<!-- ct or ctp scan
end&#45;&gt;sdec admit -->
<g id="edge3" class="edge">
<title>ct or ctp scan
end&#45;&gt;sdec admit</title>
<path fill="none" stroke="black" stroke-width="2.42" d="M1062.16,-72.5C1091.81,-72.5 1131.14,-72.5 1162.15,-72.5"/>
<polygon fill="black" stroke="black" stroke-width="2.42" points="1162.09,-76 1172.09,-72.5 1162.09,-69 1162.09,-76"/>
<text text-anchor="middle" x="1119" y="-108.7" font-family="Times New Roman,serif" font-size="14.00">n=140</text>
<text text-anchor="middle" x="1119" y="-92.2" font-family="Times New Roman,serif" font-size="14.00">p=0.42</text>
<text text-anchor="middle" x="1119" y="-75.7" font-family="Times New Roman,serif" font-size="14.00">max=0.0 days</text>
</g>
<!-- ward q start -->
<g id="node12" class="node">
<title>ward q start</title>
<path fill="none" stroke="black" d="M1643.25,-41C1643.25,-41 1586.75,-41 1586.75,-41 1580.75,-41 1574.75,-35 1574.75,-29 1574.75,-29 1574.75,-12 1574.75,-12 1574.75,-6 1580.75,0 1586.75,0 1586.75,0 1643.25,0 1643.25,0 1649.25,0 1655.25,-6 1655.25,-12 1655.25,-12 1655.25,-29 1655.25,-29 1655.25,-35 1649.25,-41 1643.25,-41"/>
<text text-anchor="middle" x="1615" y="-23.7" font-family="Times New Roman,serif" font-size="14.00">ward q start</text>
<text text-anchor="middle" x="1615" y="-7.2" font-family="Times New Roman,serif" font-size="14.00">n=48</text>
</g>
<!-- ct or ctp scan
end&#45;&gt;ward q start -->
<g id="edge4" class="edge">
<title>ct or ctp scan
end&#45;&gt;ward q start</title>
<path fill="none" stroke="black" stroke-width="0.98" stroke-dasharray="5,2" d="M1062.17,-60.98C1111.87,-48.36 1195.8,-28.62 1269.25,-19 1361.69,-6.9 1385.55,-10.83 1478.75,-8.5 1513.41,-7.63 1522.27,-4.93 1556.75,-8.5 1558.91,-8.72 1561.11,-8.99 1563.32,-9.3"/>
<polygon fill="black" stroke="black" stroke-width="0.98" points="1562.54,-12.72 1572.97,-10.86 1563.66,-5.81 1562.54,-12.72"/>
<text text-anchor="middle" x="1308.25" y="-55.2" font-family="Times New Roman,serif" font-size="14.00">n=31</text>
<text text-anchor="middle" x="1308.25" y="-38.7" font-family="Times New Roman,serif" font-size="14.00">p=0.09</text>
<text text-anchor="middle" x="1308.25" y="-22.2" font-family="Times New Roman,serif" font-size="14.00">max=0.0 days</text>
</g>
<!-- ct or ctp scan
start -->
<g id="node3" class="node">
<title>ct or ctp scan
start</title>
<path fill="none" stroke="black" d="M847.25,-101.25C847.25,-101.25 782.5,-101.25 782.5,-101.25 776.5,-101.25 770.5,-95.25 770.5,-89.25 770.5,-89.25 770.5,-55.75 770.5,-55.75 770.5,-49.75 776.5,-43.75 782.5,-43.75 782.5,-43.75 847.25,-43.75 847.25,-43.75 853.25,-43.75 859.25,-49.75 859.25,-55.75 859.25,-55.75 859.25,-89.25 859.25,-89.25 859.25,-95.25 853.25,-101.25 847.25,-101.25"/>
<text text-anchor="middle" x="814.88" y="-83.95" font-family="Times New Roman,serif" font-size="14.00">ct or ctp scan</text>
<text text-anchor="middle" x="814.88" y="-67.45" font-family="Times New Roman,serif" font-size="14.00">start</text>
<text text-anchor="middle" x="814.88" y="-50.95" font-family="Times New Roman,serif" font-size="14.00">n=336</text>
</g>
<!-- ct or ctp scan
start&#45;&gt;ct or ctp scan
end -->
<g id="edge5" class="edge">
<title>ct or ctp scan
start&#45;&gt;ct or ctp scan
end</title>
<path fill="none" stroke="black" stroke-width="5" d="M859.43,-72.5C887.88,-72.5 925.4,-72.5 956.65,-72.5"/>
<polygon fill="black" stroke="black" stroke-width="5" points="956.57,-76.88 966.57,-72.5 956.57,-68.13 956.57,-76.88"/>
<text text-anchor="middle" x="916.25" y="-108.7" font-family="Times New Roman,serif" font-size="14.00">n=336</text>
<text text-anchor="middle" x="916.25" y="-92.2" font-family="Times New Roman,serif" font-size="14.00">p=1.00</text>
<text text-anchor="middle" x="916.25" y="-75.7" font-family="Times New Roman,serif" font-size="14.00">max=0.0 days</text>
</g>
<!-- nurse triage
start -->
<g id="node7" class="node">
<title>nurse triage
start</title>
<path fill="none" stroke="black" d="M450.75,-101.25C450.75,-101.25 395,-101.25 395,-101.25 389,-101.25 383,-95.25 383,-89.25 383,-89.25 383,-55.75 383,-55.75 383,-49.75 389,-43.75 395,-43.75 395,-43.75 450.75,-43.75 450.75,-43.75 456.75,-43.75 462.75,-49.75 462.75,-55.75 462.75,-55.75 462.75,-89.25 462.75,-89.25 462.75,-95.25 456.75,-101.25 450.75,-101.25"/>
<text text-anchor="middle" x="422.88" y="-83.95" font-family="Times New Roman,serif" font-size="14.00">nurse triage</text>
<text text-anchor="middle" x="422.88" y="-67.45" font-family="Times New Roman,serif" font-size="14.00">start</text>
<text text-anchor="middle" x="422.88" y="-50.95" font-family="Times New Roman,serif" font-size="14.00">n=336</text>
</g>
<!-- nurse q start&#45;&gt;nurse triage
start -->
<g id="edge6" class="edge">
<title>nurse q start&#45;&gt;nurse triage
start</title>
<path fill="none" stroke="black" stroke-width="5" d="M269.14,-72.5C297.47,-72.5 335.65,-72.5 366.75,-72.5"/>
<polygon fill="black" stroke="black" stroke-width="5" points="366.5,-76.88 376.5,-72.5 366.5,-68.13 366.5,-76.88"/>
<text text-anchor="middle" x="326" y="-108.7" font-family="Times New Roman,serif" font-size="14.00">n=336</text>
<text text-anchor="middle" x="326" y="-92.2" font-family="Times New Roman,serif" font-size="14.00">p=1.00</text>
<text text-anchor="middle" x="326" y="-75.7" font-family="Times New Roman,serif" font-size="14.00">max=0.0 days</text>
</g>
<!-- nurse triage
end -->
<g id="node6" class="node">
<title>nurse triage
end</title>
<path fill="none" stroke="black" d="M644.5,-101.25C644.5,-101.25 588.75,-101.25 588.75,-101.25 582.75,-101.25 576.75,-95.25 576.75,-89.25 576.75,-89.25 576.75,-55.75 576.75,-55.75 576.75,-49.75 582.75,-43.75 588.75,-43.75 588.75,-43.75 644.5,-43.75 644.5,-43.75 650.5,-43.75 656.5,-49.75 656.5,-55.75 656.5,-55.75 656.5,-89.25 656.5,-89.25 656.5,-95.25 650.5,-101.25 644.5,-101.25"/>
<text text-anchor="middle" x="616.62" y="-83.95" font-family="Times New Roman,serif" font-size="14.00">nurse triage</text>
<text text-anchor="middle" x="616.62" y="-67.45" font-family="Times New Roman,serif" font-size="14.00">end</text>
<text text-anchor="middle" x="616.62" y="-50.95" font-family="Times New Roman,serif" font-size="14.00">n=336</text>
</g>
<!-- nurse triage
end&#45;&gt;ct or ctp scan
start -->
<g id="edge7" class="edge">
<title>nurse triage
end&#45;&gt;ct or ctp scan
start</title>
<path fill="none" stroke="black" stroke-width="5" d="M656.87,-72.5C684.78,-72.5 722.77,-72.5 754.39,-72.5"/>
<polygon fill="black" stroke="black" stroke-width="5" points="754.02,-76.88 764.02,-72.5 754.02,-68.13 754.02,-76.88"/>
<text text-anchor="middle" x="713.5" y="-108.7" font-family="Times New Roman,serif" font-size="14.00">n=336</text>
<text text-anchor="middle" x="713.5" y="-92.2" font-family="Times New Roman,serif" font-size="14.00">p=1.00</text>
<text text-anchor="middle" x="713.5" y="-75.7" font-family="Times New Roman,serif" font-size="14.00">max=0.0 days</text>
</g>
<!-- nurse triage
start&#45;&gt;nurse triage
end -->
<g id="edge8" class="edge">
<title>nurse triage
start&#45;&gt;nurse triage
end</title>
<path fill="none" stroke="black" stroke-width="5" d="M463.14,-72.5C491.19,-72.5 529.31,-72.5 560.42,-72.5"/>
<polygon fill="black" stroke="black" stroke-width="5" points="560.17,-76.88 570.17,-72.5 560.17,-68.13 560.17,-76.88"/>
<text text-anchor="middle" x="519.75" y="-108.7" font-family="Times New Roman,serif" font-size="14.00">n=336</text>
<text text-anchor="middle" x="519.75" y="-92.2" font-family="Times New Roman,serif" font-size="14.00">p=1.00</text>
<text text-anchor="middle" x="519.75" y="-75.7" font-family="Times New Roman,serif" font-size="14.00">max=0.1 days</text>
</g>
<!-- sdec discharge -->
<g id="node9" class="node">
<title>sdec discharge</title>
<path fill="none" stroke="black" d="M1448.75,-93C1448.75,-93 1377.25,-93 1377.25,-93 1371.25,-93 1365.25,-87 1365.25,-81 1365.25,-81 1365.25,-64 1365.25,-64 1365.25,-58 1371.25,-52 1377.25,-52 1377.25,-52 1448.75,-52 1448.75,-52 1454.75,-52 1460.75,-58 1460.75,-64 1460.75,-64 1460.75,-81 1460.75,-81 1460.75,-87 1454.75,-93 1448.75,-93"/>
<text text-anchor="middle" x="1413" y="-75.7" font-family="Times New Roman,serif" font-size="14.00">sdec discharge</text>
<text text-anchor="middle" x="1413" y="-59.2" font-family="Times New Roman,serif" font-size="14.00">n=140</text>
</g>
<!-- sdec admit&#45;&gt;sdec discharge -->
<g id="edge9" class="edge">
<title>sdec admit&#45;&gt;sdec discharge</title>
<path fill="none" stroke="black" stroke-width="2.42" d="M1251.75,-72.5C1279.79,-72.5 1318.88,-72.5 1351.43,-72.5"/>
<polygon fill="black" stroke="black" stroke-width="2.42" points="1351.26,-76 1361.26,-72.5 1351.26,-69 1351.26,-76"/>
<text text-anchor="middle" x="1308.25" y="-108.7" font-family="Times New Roman,serif" font-size="14.00">n=140</text>
<text text-anchor="middle" x="1308.25" y="-92.2" font-family="Times New Roman,serif" font-size="14.00">p=1.00</text>
<text text-anchor="middle" x="1308.25" y="-75.7" font-family="Times New Roman,serif" font-size="14.00">max=0.4 days</text>
</g>
<!-- sdec discharge&#45;&gt;exit -->
<g id="edge10" class="edge">
<title>sdec discharge&#45;&gt;exit</title>
<path fill="none" stroke="black" stroke-width="2.2" d="M1461.22,-77.3C1501.71,-81.01 1561.63,-85.5 1614,-85.5 1614,-85.5 1614,-85.5 2011.75,-85.5 2063.01,-85.5 2122.13,-85.5 2160.23,-85.5"/>
<polygon fill="black" stroke="black" stroke-width="2.2" points="2160.17,-89 2170.17,-85.5 2160.17,-82 2160.17,-89"/>
<text text-anchor="middle" x="1808.38" y="-121.7" font-family="Times New Roman,serif" font-size="14.00">n=123</text>
<text text-anchor="middle" x="1808.38" y="-105.2" font-family="Times New Roman,serif" font-size="14.00">p=0.88</text>
<text text-anchor="middle" x="1808.38" y="-88.7" font-family="Times New Roman,serif" font-size="14.00">max=0.0 days</text>
</g>
<!-- sdec discharge&#45;&gt;ward q start -->
<g id="edge11" class="edge">
<title>sdec discharge&#45;&gt;ward q start</title>
<path fill="none" stroke="black" stroke-width="0.8" d="M1433.74,-51.51C1445.59,-40.46 1461.66,-27.98 1478.75,-22 1505.59,-12.61 1537.29,-11.76 1563.26,-13.48"/>
<polygon fill="black" stroke="black" stroke-width="0.8" points="1562.92,-16.97 1573.17,-14.3 1563.49,-9.99 1562.92,-16.97"/>
<text text-anchor="middle" x="1517.75" y="-58.2" font-family="Times New Roman,serif" font-size="14.00">n=17</text>
<text text-anchor="middle" x="1517.75" y="-41.7" font-family="Times New Roman,serif" font-size="14.00">p=0.12</text>
<text text-anchor="middle" x="1517.75" y="-25.2" font-family="Times New Roman,serif" font-size="14.00">max=0.0 days</text>
</g>
<!-- ward admit -->
<g id="node10" class="node">
<title>ward admit</title>
<path fill="none" stroke="black" d="M1835.5,-41C1835.5,-41 1781.25,-41 1781.25,-41 1775.25,-41 1769.25,-35 1769.25,-29 1769.25,-29 1769.25,-12 1769.25,-12 1769.25,-6 1775.25,0 1781.25,0 1781.25,0 1835.5,0 1835.5,0 1841.5,0 1847.5,-6 1847.5,-12 1847.5,-12 1847.5,-29 1847.5,-29 1847.5,-35 1841.5,-41 1835.5,-41"/>
<text text-anchor="middle" x="1808.38" y="-23.7" font-family="Times New Roman,serif" font-size="14.00">ward admit</text>
<text text-anchor="middle" x="1808.38" y="-7.2" font-family="Times New Roman,serif" font-size="14.00">n=48</text>
</g>
<!-- ward discharge -->
<g id="node11" class="node">
<title>ward discharge</title>
<path fill="none" stroke="black" d="M2048,-41C2048,-41 1973.5,-41 1973.5,-41 1967.5,-41 1961.5,-35 1961.5,-29 1961.5,-29 1961.5,-12 1961.5,-12 1961.5,-6 1967.5,0 1973.5,0 1973.5,0 2048,0 2048,0 2054,0 2060,-6 2060,-12 2060,-12 2060,-29 2060,-29 2060,-35 2054,-41 2048,-41"/>
<text text-anchor="middle" x="2010.75" y="-23.7" font-family="Times New Roman,serif" font-size="14.00">ward discharge</text>
<text text-anchor="middle" x="2010.75" y="-7.2" font-family="Times New Roman,serif" font-size="14.00">n=48</text>
</g>
<!-- ward admit&#45;&gt;ward discharge -->
<g id="edge12" class="edge">
<title>ward admit&#45;&gt;ward discharge</title>
<path fill="none" stroke="black" stroke-width="1.21" d="M1847.54,-20.5C1876.38,-20.5 1916.54,-20.5 1949.68,-20.5"/>
<polygon fill="black" stroke="black" stroke-width="1.21" points="1949.25,-24 1959.25,-20.5 1949.25,-17 1949.25,-24"/>
<text text-anchor="middle" x="1904.5" y="-56.7" font-family="Times New Roman,serif" font-size="14.00">n=48</text>
<text text-anchor="middle" x="1904.5" y="-40.2" font-family="Times New Roman,serif" font-size="14.00">p=1.00</text>
<text text-anchor="middle" x="1904.5" y="-23.7" font-family="Times New Roman,serif" font-size="14.00">max=1.9 days</text>
</g>
<!-- ward discharge&#45;&gt;exit -->
<g id="edge13" class="edge">
<title>ward discharge&#45;&gt;exit</title>
<path fill="none" stroke="black" stroke-width="1.21" d="M2060.27,-10.27C2089.64,-6.6 2126.9,-6.57 2156,-22 2169.24,-29.02 2179.3,-42.01 2186.44,-54.41"/>
<polygon fill="black" stroke="black" stroke-width="1.21" points="2183.16,-55.7 2190.9,-62.94 2189.36,-52.45 2183.16,-55.7"/>
<text text-anchor="middle" x="2117" y="-58.2" font-family="Times New Roman,serif" font-size="14.00">n=48</text>
<text text-anchor="middle" x="2117" y="-41.7" font-family="Times New Roman,serif" font-size="14.00">p=1.00</text>
<text text-anchor="middle" x="2117" y="-25.2" font-family="Times New Roman,serif" font-size="14.00">max=0.0 days</text>
</g>
<!-- ward q start&#45;&gt;ward admit -->
<g id="edge14" class="edge">
<title>ward q start&#45;&gt;ward admit</title>
<path fill="none" stroke="black" stroke-width="1.21" d="M1655.65,-20.5C1685.07,-20.5 1725.39,-20.5 1757.07,-20.5"/>
<polygon fill="black" stroke="black" stroke-width="1.21" points="1756.92,-24 1766.92,-20.5 1756.92,-17 1756.92,-24"/>
<text text-anchor="middle" x="1712.25" y="-56.7" font-family="Times New Roman,serif" font-size="14.00">n=48</text>
<text text-anchor="middle" x="1712.25" y="-40.2" font-family="Times New Roman,serif" font-size="14.00">p=1.00</text>
<text text-anchor="middle" x="1712.25" y="-23.7" font-family="Times New Roman,serif" font-size="14.00">max=0.0 days</text>
</g>
</g>
</svg>
