<?xml version="1.0" encoding="UTF-8" standalone="no"?>
<!DOCTYPE svg PUBLIC "-//W3C//DTD SVG 1.1//EN"
 "http://www.w3.org/Graphics/SVG/1.1/DTD/svg11.dtd">
<!-- Generated by graphviz version 2.43.0 (0)
 -->
<!-- Title: %3 Pages: 1 -->
<svg width="2800pt" height="308pt"
 viewBox="0.00 0.00 2800.00 308.00" xmlns="http://www.w3.org/2000/svg" xmlns:xlink="http://www.w3.org/1999/xlink">
<g id="graph0" class="graph" transform="scale(1 1) rotate(0) translate(4 304)">
<title>%3</title>
<polygon fill="white" stroke="transparent" points="-4,4 -4,-304 2796,-304 2796,4 -4,4"/>
<text text-anchor="middle" x="1396" y="-280" font-family="Times,serif" font-size="20.00">Stroke Type: Non Stroke</text>
<!-- clock start -->
<g id="node1" class="node">
<title>clock start</title>
<path fill="none" stroke="black" d="M80,-158C80,-158 12,-158 12,-158 6,-158 0,-152 0,-146 0,-146 0,-132 0,-132 0,-126 6,-120 12,-120 12,-120 80,-120 80,-120 86,-120 92,-126 92,-132 92,-132 92,-146 92,-146 92,-152 86,-158 80,-158"/>
<text text-anchor="middle" x="46" y="-142.8" font-family="Times,serif" font-size="14.00">clock start</text>
<text text-anchor="middle" x="46" y="-127.8" font-family="Times,serif" font-size="14.00">n=719</text>
</g>
<!-- nurse q start -->
<g id="node5" class="node">
<title>nurse q start</title>
<path fill="none" stroke="black" d="M329,-158C329,-158 243,-158 243,-158 237,-158 231,-152 231,-146 231,-146 231,-132 231,-132 231,-126 237,-120 243,-120 243,-120 329,-120 329,-120 335,-120 341,-126 341,-132 341,-132 341,-146 341,-146 341,-152 335,-158 329,-158"/>
<text text-anchor="middle" x="286" y="-142.8" font-family="Times,serif" font-size="14.00">nurse q start</text>
<text text-anchor="middle" x="286" y="-127.8" font-family="Times,serif" font-size="14.00">n=719</text>
</g>
<!-- clock start&#45;&gt;nurse q start -->
<g id="edge1" class="edge">
<title>clock start&#45;&gt;nurse q start</title>
<path fill="none" stroke="black" stroke-width="5" d="M92.05,-139C128.45,-139 180.14,-139 220.86,-139"/>
<polygon fill="black" stroke="black" stroke-width="5" points="220.97,-143.38 230.97,-139 220.97,-134.63 220.97,-143.38"/>
<text text-anchor="middle" x="161.5" y="-172.8" font-family="Times,serif" font-size="14.00">n=719</text>
<text text-anchor="middle" x="161.5" y="-157.8" font-family="Times,serif" font-size="14.00">p=1.00</text>
<text text-anchor="middle" x="161.5" y="-142.8" font-family="Times,serif" font-size="14.00">max=0.0 days</text>
</g>
<!-- ct or ctp scan
end -->
<g id="node2" class="node">
<title>ct or ctp scan
end</title>
<path fill="none" stroke="black" d="M1319,-165.5C1319,-165.5 1230,-165.5 1230,-165.5 1224,-165.5 1218,-159.5 1218,-153.5 1218,-153.5 1218,-124.5 1218,-124.5 1218,-118.5 1224,-112.5 1230,-112.5 1230,-112.5 1319,-112.5 1319,-112.5 1325,-112.5 1331,-118.5 1331,-124.5 1331,-124.5 1331,-153.5 1331,-153.5 1331,-159.5 1325,-165.5 1319,-165.5"/>
<text text-anchor="middle" x="1274.5" y="-150.3" font-family="Times,serif" font-size="14.00">ct or ctp scan</text>
<text text-anchor="middle" x="1274.5" y="-135.3" font-family="Times,serif" font-size="14.00">end</text>
<text text-anchor="middle" x="1274.5" y="-120.3" font-family="Times,serif" font-size="14.00">n=719</text>
</g>
<!-- exit -->
<g id="node4" class="node">
<title>exit</title>
<path fill="none" stroke="black" d="M2780,-134C2780,-134 2739,-134 2739,-134 2733,-134 2727,-128 2727,-122 2727,-122 2727,-108 2727,-108 2727,-102 2733,-96 2739,-96 2739,-96 2780,-96 2780,-96 2786,-96 2792,-102 2792,-108 2792,-108 2792,-122 2792,-122 2792,-128 2786,-134 2780,-134"/>
<text text-anchor="middle" x="2759.5" y="-118.8" font-family="Times,serif" font-size="14.00">exit</text>
<text text-anchor="middle" x="2759.5" y="-103.8" font-family="Times,serif" font-size="14.00">n=719</text>
</g>
<!-- ct or ctp scan
end&#45;&gt;exit -->
<g id="edge2" class="edge">
<title>ct or ctp scan
end&#45;&gt;exit</title>
<path fill="none" stroke="black" stroke-width="2.37" d="M1309.87,-165.73C1321.73,-173.9 1335.46,-182.23 1349,-188 1419.14,-217.88 1440.26,-225 1516.5,-225 1516.5,-225 1516.5,-225 2525.5,-225 2604.34,-225 2685.06,-172.86 2727.71,-140.37"/>
<polygon fill="black" stroke="black" stroke-width="2.37" points="2729.96,-143.06 2735.72,-134.16 2725.67,-137.53 2729.96,-143.06"/>
<text text-anchor="middle" x="2018.5" y="-258.8" font-family="Times,serif" font-size="14.00">n=270</text>
<text text-anchor="middle" x="2018.5" y="-243.8" font-family="Times,serif" font-size="14.00">p=0.38</text>
<text text-anchor="middle" x="2018.5" y="-228.8" font-family="Times,serif" font-size="14.00">max=0.0 days</text>
</g>
<!-- sdec admit -->
<g id="node8" class="node">
<title>sdec admit</title>
<path fill="none" stroke="black" d="M1553,-158C1553,-158 1482,-158 1482,-158 1476,-158 1470,-152 1470,-146 1470,-146 1470,-132 1470,-132 1470,-126 1476,-120 1482,-120 1482,-120 1553,-120 1553,-120 1559,-120 1565,-126 1565,-132 1565,-132 1565,-146 1565,-146 1565,-152 1559,-158 1553,-158"/>
<text text-anchor="middle" x="1517.5" y="-142.8" font-family="Times,serif" font-size="14.00">sdec admit</text>
<text text-anchor="middle" x="1517.5" y="-127.8" font-family="Times,serif" font-size="14.00">n=313</text>
</g>
<!-- ct or ctp scan
end&#45;&gt;sdec admit -->
<g id="edge3" class="edge">
<title>ct or ctp scan
end&#45;&gt;sdec admit</title>
<path fill="none" stroke="black" stroke-width="2.62" d="M1331.09,-139C1369.63,-139 1420.79,-139 1459.61,-139"/>
<polygon fill="black" stroke="black" stroke-width="2.62" points="1459.7,-142.5 1469.7,-139 1459.7,-135.5 1459.7,-142.5"/>
<text text-anchor="middle" x="1400.5" y="-172.8" font-family="Times,serif" font-size="14.00">n=313</text>
<text text-anchor="middle" x="1400.5" y="-157.8" font-family="Times,serif" font-size="14.00">p=0.44</text>
<text text-anchor="middle" x="1400.5" y="-142.8" font-family="Times,serif" font-size="14.00">max=0.1 days</text>
</g>
<!-- ward q start -->
<g id="node12" class="node">
<title>ward q start</title>
<path fill="none" stroke="black" d="M2059,-88C2059,-88 1978,-88 1978,-88 1972,-88 1966,-82 1966,-76 1966,-76 1966,-62 1966,-62 1966,-56 1972,-50 1978,-50 1978,-50 2059,-50 2059,-50 2065,-50 2071,-56 2071,-62 2071,-62 2071,-76 2071,-76 2071,-82 2065,-88 2059,-88"/>
<text text-anchor="middle" x="2018.5" y="-72.8" font-family="Times,serif" font-size="14.00">ward q start</text>
<text text-anchor="middle" x="2018.5" y="-57.8" font-family="Times,serif" font-size="14.00">n=224</text>
</g>
<!-- ct or ctp scan
end&#45;&gt;ward q start -->
<g id="edge4" class="edge">
<title>ct or ctp scan
end&#45;&gt;ward q start</title>
<path fill="none" stroke="black" stroke-width="1.58" d="M1331.12,-128.54C1392.55,-117.35 1494.49,-99.9 1583,-90 1698.97,-77.03 1728.42,-78.13 1845,-73 1881.59,-71.39 1922.58,-70.4 1955.42,-69.82"/>
<polygon fill="black" stroke="black" stroke-width="1.58" points="1955.84,-73.31 1965.78,-69.64 1955.72,-66.31 1955.84,-73.31"/>
<text text-anchor="middle" x="1634.5" y="-123.8" font-family="Times,serif" font-size="14.00">n=136</text>
<text text-anchor="middle" x="1634.5" y="-108.8" font-family="Times,serif" font-size="14.00">p=0.19</text>
<text text-anchor="middle" x="1634.5" y="-93.8" font-family="Times,serif" font-size="14.00">max=0.0 days</text>
</g>
<!-- ct or ctp scan
start -->
<g id="node3" class="node">
<title>ct or ctp scan
start</title>
<path fill="none" stroke="black" d="M1067,-165.5C1067,-165.5 978,-165.5 978,-165.5 972,-165.5 966,-159.5 966,-153.5 966,-153.5 966,-124.5 966,-124.5 966,-118.5 972,-112.5 978,-112.5 978,-112.5 1067,-112.5 1067,-112.5 1073,-112.5 1079,-118.5 1079,-124.5 1079,-124.5 1079,-153.5 1079,-153.5 1079,-159.5 1073,-165.5 1067,-165.5"/>
<text text-anchor="middle" x="1022.5" y="-150.3" font-family="Times,serif" font-size="14.00">ct or ctp scan</text>
<text text-anchor="middle" x="1022.5" y="-135.3" font-family="Times,serif" font-size="14.00">start</text>
<text text-anchor="middle" x="1022.5" y="-120.3" font-family="Times,serif" font-size="14.00">n=719</text>
</g>
<!-- ct or ctp scan
start&#45;&gt;ct or ctp scan
end -->
<g id="edge5" class="edge">
<title>ct or ctp scan
start&#45;&gt;ct or ctp scan
end</title>
<path fill="none" stroke="black" stroke-width="5" d="M1079.29,-139C1117.29,-139 1167.74,-139 1207.7,-139"/>
<polygon fill="black" stroke="black" stroke-width="5" points="1207.88,-143.38 1217.88,-139 1207.88,-134.63 1207.88,-143.38"/>
<text text-anchor="middle" x="1148.5" y="-172.8" font-family="Times,serif" font-size="14.00">n=719</text>
<text text-anchor="middle" x="1148.5" y="-157.8" font-family="Times,serif" font-size="14.00">p=1.00</text>
<text text-anchor="middle" x="1148.5" y="-142.8" font-family="Times,serif" font-size="14.00">max=0.1 days</text>
</g>
<!-- nurse triage
start -->
<g id="node7" class="node">
<title>nurse triage
start</title>
<path fill="none" stroke="black" d="M572,-165.5C572,-165.5 492,-165.5 492,-165.5 486,-165.5 480,-159.5 480,-153.5 480,-153.5 480,-124.5 480,-124.5 480,-118.5 486,-112.5 492,-112.5 492,-112.5 572,-112.5 572,-112.5 578,-112.5 584,-118.5 584,-124.5 584,-124.5 584,-153.5 584,-153.5 584,-159.5 578,-165.5 572,-165.5"/>
<text text-anchor="middle" x="532" y="-150.3" font-family="Times,serif" font-size="14.00">nurse triage</text>
<text text-anchor="middle" x="532" y="-135.3" font-family="Times,serif" font-size="14.00">start</text>
<text text-anchor="middle" x="532" y="-120.3" font-family="Times,serif" font-size="14.00">n=719</text>
</g>
<!-- nurse q start&#45;&gt;nurse triage
start -->
<g id="edge6" class="edge">
<title>nurse q start&#45;&gt;nurse triage
start</title>
<path fill="none" stroke="black" stroke-width="5" d="M341.15,-139C379.25,-139 430.3,-139 469.86,-139"/>
<polygon fill="black" stroke="black" stroke-width="5" points="469.92,-143.38 479.92,-139 469.92,-134.63 469.92,-143.38"/>
<text text-anchor="middle" x="410.5" y="-172.8" font-family="Times,serif" font-size="14.00">n=719</text>
<text text-anchor="middle" x="410.5" y="-157.8" font-family="Times,serif" font-size="14.00">p=1.00</text>
<text text-anchor="middle" x="410.5" y="-142.8" font-family="Times,serif" font-size="14.00">max=0.1 days</text>
</g>
<!-- nurse triage
end -->
<g id="node6" class="node">
<title>nurse triage
end</title>
<path fill="none" stroke="black" d="M815,-165.5C815,-165.5 735,-165.5 735,-165.5 729,-165.5 723,-159.5 723,-153.5 723,-153.5 723,-124.5 723,-124.5 723,-118.5 729,-112.5 735,-112.5 735,-112.5 815,-112.5 815,-112.5 821,-112.5 827,-118.5 827,-124.5 827,-124.5 827,-153.5 827,-153.5 827,-159.5 821,-165.5 815,-165.5"/>
<text text-anchor="middle" x="775" y="-150.3" font-family="Times,serif" font-size="14.00">nurse triage</text>
<text text-anchor="middle" x="775" y="-135.3" font-family="Times,serif" font-size="14.00">end</text>
<text text-anchor="middle" x="775" y="-120.3" font-family="Times,serif" font-size="14.00">n=719</text>
</g>
<!-- nurse triage
end&#45;&gt;ct or ctp scan
start -->
<g id="edge7" class="edge">
<title>nurse triage
end&#45;&gt;ct or ctp scan
start</title>
<path fill="none" stroke="black" stroke-width="5" d="M827.17,-139C864.48,-139 915.35,-139 955.68,-139"/>
<polygon fill="black" stroke="black" stroke-width="5" points="955.7,-143.38 965.7,-139 955.7,-134.63 955.7,-143.38"/>
<text text-anchor="middle" x="896.5" y="-172.8" font-family="Times,serif" font-size="14.00">n=719</text>
<text text-anchor="middle" x="896.5" y="-157.8" font-family="Times,serif" font-size="14.00">p=1.00</text>
<text text-anchor="middle" x="896.5" y="-142.8" font-family="Times,serif" font-size="14.00">max=0.0 days</text>
</g>
<!-- nurse triage
start&#45;&gt;nurse triage
end -->
<g id="edge8" class="edge">
<title>nurse triage
start&#45;&gt;nurse triage
end</title>
<path fill="none" stroke="black" stroke-width="5" d="M584.11,-139C621.73,-139 673.05,-139 712.85,-139"/>
<polygon fill="black" stroke="black" stroke-width="5" points="712.96,-143.38 722.96,-139 712.96,-134.63 712.96,-143.38"/>
<text text-anchor="middle" x="653.5" y="-172.8" font-family="Times,serif" font-size="14.00">n=719</text>
<text text-anchor="middle" x="653.5" y="-157.8" font-family="Times,serif" font-size="14.00">p=1.00</text>
<text text-anchor="middle" x="653.5" y="-142.8" font-family="Times,serif" font-size="14.00">max=0.2 days</text>
</g>
<!-- sdec discharge -->
<g id="node9" class="node">
<title>sdec discharge</title>
<path fill="none" stroke="black" d="M1815,-158C1815,-158 1716,-158 1716,-158 1710,-158 1704,-152 1704,-146 1704,-146 1704,-132 1704,-132 1704,-126 1710,-120 1716,-120 1716,-120 1815,-120 1815,-120 1821,-120 1827,-126 1827,-132 1827,-132 1827,-146 1827,-146 1827,-152 1821,-158 1815,-158"/>
<text text-anchor="middle" x="1765.5" y="-142.8" font-family="Times,serif" font-size="14.00">sdec discharge</text>
<text text-anchor="middle" x="1765.5" y="-127.8" font-family="Times,serif" font-size="14.00">n=313</text>
</g>
<!-- sdec admit&#45;&gt;sdec discharge -->
<g id="edge9" class="edge">
<title>sdec admit&#45;&gt;sdec discharge</title>
<path fill="none" stroke="black" stroke-width="2.62" d="M1565.06,-139C1601.35,-139 1652.34,-139 1693.68,-139"/>
<polygon fill="black" stroke="black" stroke-width="2.62" points="1693.7,-142.5 1703.7,-139 1693.7,-135.5 1693.7,-142.5"/>
<text text-anchor="middle" x="1634.5" y="-172.8" font-family="Times,serif" font-size="14.00">n=313</text>
<text text-anchor="middle" x="1634.5" y="-157.8" font-family="Times,serif" font-size="14.00">p=1.00</text>
<text text-anchor="middle" x="1634.5" y="-142.8" font-family="Times,serif" font-size="14.00">max=1.0 days</text>
</g>
<!-- sdec discharge&#45;&gt;exit -->
<g id="edge10" class="edge">
<title>sdec discharge&#45;&gt;exit</title>
<path fill="none" stroke="black" stroke-width="2.1" d="M1827.06,-143.9C1877.87,-147.58 1952.38,-152 2017.5,-152 2017.5,-152 2017.5,-152 2525.5,-152 2593.09,-152 2670.36,-136.63 2716.74,-125.7"/>
<polygon fill="black" stroke="black" stroke-width="2.1" points="2717.81,-129.04 2726.72,-123.3 2716.18,-122.23 2717.81,-129.04"/>
<text text-anchor="middle" x="2261.5" y="-185.8" font-family="Times,serif" font-size="14.00">n=225</text>
<text text-anchor="middle" x="2261.5" y="-170.8" font-family="Times,serif" font-size="14.00">p=0.72</text>
<text text-anchor="middle" x="2261.5" y="-155.8" font-family="Times,serif" font-size="14.00">max=0.0 days</text>
</g>
<!-- sdec discharge&#45;&gt;ward q start -->
<g id="edge11" class="edge">
<title>sdec discharge&#45;&gt;ward q start</title>
<path fill="none" stroke="black" stroke-width="1.3" d="M1793.19,-119.81C1807.81,-110.24 1826.65,-99.37 1845,-93 1880.46,-80.69 1922.1,-74.67 1955.59,-71.74"/>
<polygon fill="black" stroke="black" stroke-width="1.3" points="1956.01,-75.22 1965.7,-70.93 1955.45,-68.24 1956.01,-75.22"/>
<text text-anchor="middle" x="1896.5" y="-126.8" font-family="Times,serif" font-size="14.00">n=88</text>
<text text-anchor="middle" x="1896.5" y="-111.8" font-family="Times,serif" font-size="14.00">p=0.28</text>
<text text-anchor="middle" x="1896.5" y="-96.8" font-family="Times,serif" font-size="14.00">max=0.0 days</text>
</g>
<!-- ward admit -->
<g id="node10" class="node">
<title>ward admit</title>
<path fill="none" stroke="black" d="M2298.5,-88C2298.5,-88 2224.5,-88 2224.5,-88 2218.5,-88 2212.5,-82 2212.5,-76 2212.5,-76 2212.5,-62 2212.5,-62 2212.5,-56 2218.5,-50 2224.5,-50 2224.5,-50 2298.5,-50 2298.5,-50 2304.5,-50 2310.5,-56 2310.5,-62 2310.5,-62 2310.5,-76 2310.5,-76 2310.5,-82 2304.5,-88 2298.5,-88"/>
<text text-anchor="middle" x="2261.5" y="-72.8" font-family="Times,serif" font-size="14.00">ward admit</text>
<text text-anchor="middle" x="2261.5" y="-57.8" font-family="Times,serif" font-size="14.00">n=224</text>
</g>
<!-- ward admit&#45;&gt;exit -->
<g id="edge12" class="edge">
<title>ward admit&#45;&gt;exit</title>
<path fill="none" stroke="black" stroke-width="0.8" stroke-dasharray="5,2" d="M2310.55,-71.72C2374.12,-75.5 2489.63,-83.03 2588,-93 2632,-97.46 2682.18,-104.12 2716.65,-108.95"/>
<polygon fill="black" stroke="black" stroke-width="0.8" points="2716.43,-112.45 2726.82,-110.39 2717.41,-105.52 2716.43,-112.45"/>
<text text-anchor="middle" x="2524.5" y="-126.8" font-family="Times,serif" font-size="14.00">n=3</text>
<text text-anchor="middle" x="2524.5" y="-111.8" font-family="Times,serif" font-size="14.00">p=0.01</text>
<text text-anchor="middle" x="2524.5" y="-96.8" font-family="Times,serif" font-size="14.00">max=0.0 days</text>
</g>
<!-- ward discharge -->
<g id="node11" class="node">
<title>ward discharge</title>
<path fill="none" stroke="black" d="M2576,-38C2576,-38 2473,-38 2473,-38 2467,-38 2461,-32 2461,-26 2461,-26 2461,-12 2461,-12 2461,-6 2467,0 2473,0 2473,0 2576,0 2576,0 2582,0 2588,-6 2588,-12 2588,-12 2588,-26 2588,-26 2588,-32 2582,-38 2576,-38"/>
<text text-anchor="middle" x="2524.5" y="-22.8" font-family="Times,serif" font-size="14.00">ward discharge</text>
<text text-anchor="middle" x="2524.5" y="-7.8" font-family="Times,serif" font-size="14.00">n=221</text>
</g>
<!-- ward admit&#45;&gt;ward discharge -->
<g id="edge13" class="edge">
<title>ward admit&#45;&gt;ward discharge</title>
<path fill="none" stroke="black" stroke-width="2.08" d="M2282.22,-49.83C2295,-38.79 2312.64,-25.94 2331,-20 2369.22,-7.63 2413.99,-6.65 2450.73,-9.1"/>
<polygon fill="black" stroke="black" stroke-width="2.08" points="2450.63,-12.6 2460.86,-9.88 2451.16,-5.62 2450.63,-12.6"/>
<text text-anchor="middle" x="2387" y="-53.8" font-family="Times,serif" font-size="14.00">n=221</text>
<text text-anchor="middle" x="2387" y="-38.8" font-family="Times,serif" font-size="14.00">p=0.99</text>
<text text-anchor="middle" x="2387" y="-23.8" font-family="Times,serif" font-size="14.00">max=19.9 days</text>
</g>
<!-- ward discharge&#45;&gt;exit -->
<g id="edge14" class="edge">
<title>ward discharge&#45;&gt;exit</title>
<path fill="none" stroke="black" stroke-width="2.08" d="M2588.11,-3.99C2625.8,1.49 2673.24,1.82 2709,-20 2732.4,-34.28 2745.27,-63.62 2751.97,-85.94"/>
<polygon fill="black" stroke="black" stroke-width="2.08" points="2748.61,-86.9 2754.63,-95.62 2755.35,-85.05 2748.61,-86.9"/>
<text text-anchor="middle" x="2657.5" y="-53.8" font-family="Times,serif" font-size="14.00">n=221</text>
<text text-anchor="middle" x="2657.5" y="-38.8" font-family="Times,serif" font-size="14.00">p=1.00</text>
<text text-anchor="middle" x="2657.5" y="-23.8" font-family="Times,serif" font-size="14.00">max=0.0 days</text>
</g>
<!-- ward q start&#45;&gt;ward admit -->
<g id="edge15" class="edge">
<title>ward q start&#45;&gt;ward admit</title>
<path fill="none" stroke="black" stroke-width="2.1" d="M2071.2,-69C2109.62,-69 2162.08,-69 2202.04,-69"/>
<polygon fill="black" stroke="black" stroke-width="2.1" points="2202.17,-72.5 2212.17,-69 2202.17,-65.5 2202.17,-72.5"/>
<text text-anchor="middle" x="2140.5" y="-102.8" font-family="Times,serif" font-size="14.00">n=224</text>
<text text-anchor="middle" x="2140.5" y="-87.8" font-family="Times,serif" font-size="14.00">p=1.00</text>
<text text-anchor="middle" x="2140.5" y="-72.8" font-family="Times,serif" font-size="14.00">max=0.0 days</text>
</g>
</g>
</svg>
