<?xml version="1.0" encoding="UTF-8" standalone="no"?>
<!DOCTYPE svg PUBLIC "-//W3C//DTD SVG 1.1//EN"
 "http://www.w3.org/Graphics/SVG/1.1/DTD/svg11.dtd">
<!-- Generated by graphviz version 12.2.1 (20241206.2353)
 -->
<!-- Pages: 1 -->
<svg width="2308pt" height="252pt"
 viewBox="0.00 0.00 2307.75 251.50" xmlns="http://www.w3.org/2000/svg" xmlns:xlink="http://www.w3.org/1999/xlink">
<g id="graph0" class="graph" transform="scale(1 1) rotate(0) translate(4 247.5)">
<polygon fill="white" stroke="none" points="-4,4 -4,-247.5 2303.75,-247.5 2303.75,4 -4,4"/>
<text text-anchor="middle" x="1149.88" y="-220.5" font-family="Times New Roman,serif" font-size="20.00">Stroke Type: ICH</text>
<!-- clock start -->
<g id="node1" class="node">
<title>clock start</title>
<path fill="none" stroke="black" d="M60.25,-102C60.25,-102 12,-102 12,-102 6,-102 0,-96 0,-90 0,-90 0,-73 0,-73 0,-67 6,-61 12,-61 12,-61 60.25,-61 60.25,-61 66.25,-61 72.25,-67 72.25,-73 72.25,-73 72.25,-90 72.25,-90 72.25,-96 66.25,-102 60.25,-102"/>
<text text-anchor="middle" x="36.12" y="-84.7" font-family="Times New Roman,serif" font-size="14.00">clock start</text>
<text text-anchor="middle" x="36.12" y="-68.2" font-family="Times New Roman,serif" font-size="14.00">n=353</text>
</g>
<!-- nurse q start -->
<g id="node5" class="node">
<title>nurse q start</title>
<path fill="none" stroke="black" d="M263,-102C263,-102 204.25,-102 204.25,-102 198.25,-102 192.25,-96 192.25,-90 192.25,-90 192.25,-73 192.25,-73 192.25,-67 198.25,-61 204.25,-61 204.25,-61 263,-61 263,-61 269,-61 275,-67 275,-73 275,-73 275,-90 275,-90 275,-96 269,-102 263,-102"/>
<text text-anchor="middle" x="233.62" y="-84.7" font-family="Times New Roman,serif" font-size="14.00">nurse q start</text>
<text text-anchor="middle" x="233.62" y="-68.2" font-family="Times New Roman,serif" font-size="14.00">n=353</text>
</g>
<!-- clock start&#45;&gt;nurse q start -->
<g id="edge1" class="edge">
<title>clock start&#45;&gt;nurse q start</title>
<path fill="none" stroke="black" stroke-width="5" d="M72.53,-81.5C101.33,-81.5 142.53,-81.5 175.92,-81.5"/>
<polygon fill="black" stroke="black" stroke-width="5" points="175.84,-85.88 185.84,-81.5 175.84,-77.13 175.84,-85.88"/>
<text text-anchor="middle" x="132.25" y="-117.7" font-family="Times New Roman,serif" font-size="14.00">n=353</text>
<text text-anchor="middle" x="132.25" y="-101.2" font-family="Times New Roman,serif" font-size="14.00">p=1.00</text>
<text text-anchor="middle" x="132.25" y="-84.7" font-family="Times New Roman,serif" font-size="14.00">mean=0.0 days</text>
</g>
<!-- ct or ctp scan
end -->
<g id="node2" class="node">
<title>ct or ctp scan
end</title>
<path fill="none" stroke="black" d="M1080,-110.25C1080,-110.25 1015.25,-110.25 1015.25,-110.25 1009.25,-110.25 1003.25,-104.25 1003.25,-98.25 1003.25,-98.25 1003.25,-64.75 1003.25,-64.75 1003.25,-58.75 1009.25,-52.75 1015.25,-52.75 1015.25,-52.75 1080,-52.75 1080,-52.75 1086,-52.75 1092,-58.75 1092,-64.75 1092,-64.75 1092,-98.25 1092,-98.25 1092,-104.25 1086,-110.25 1080,-110.25"/>
<text text-anchor="middle" x="1047.62" y="-92.95" font-family="Times New Roman,serif" font-size="14.00">ct or ctp scan</text>
<text text-anchor="middle" x="1047.62" y="-76.45" font-family="Times New Roman,serif" font-size="14.00">end</text>
<text text-anchor="middle" x="1047.62" y="-59.95" font-family="Times New Roman,serif" font-size="14.00">n=353</text>
</g>
<!-- sdec admit -->
<g id="node8" class="node">
<title>sdec admit</title>
<path fill="none" stroke="black" d="M1275.25,-147C1275.25,-147 1224,-147 1224,-147 1218,-147 1212,-141 1212,-135 1212,-135 1212,-118 1212,-118 1212,-112 1218,-106 1224,-106 1224,-106 1275.25,-106 1275.25,-106 1281.25,-106 1287.25,-112 1287.25,-118 1287.25,-118 1287.25,-135 1287.25,-135 1287.25,-141 1281.25,-147 1275.25,-147"/>
<text text-anchor="middle" x="1249.62" y="-129.7" font-family="Times New Roman,serif" font-size="14.00">sdec admit</text>
<text text-anchor="middle" x="1249.62" y="-113.2" font-family="Times New Roman,serif" font-size="14.00">n=148</text>
</g>
<!-- ct or ctp scan
end&#45;&gt;sdec admit -->
<g id="edge2" class="edge">
<title>ct or ctp scan
end&#45;&gt;sdec admit</title>
<path fill="none" stroke="black" stroke-width="2.49" d="M1092.02,-91.26C1123.29,-98.3 1165.55,-107.81 1198.3,-115.18"/>
<polygon fill="black" stroke="black" stroke-width="2.49" points="1197.49,-118.58 1208.01,-117.36 1199.02,-111.75 1197.49,-118.58"/>
<text text-anchor="middle" x="1152" y="-149.4" font-family="Times New Roman,serif" font-size="14.00">n=148</text>
<text text-anchor="middle" x="1152" y="-132.9" font-family="Times New Roman,serif" font-size="14.00">p=0.42</text>
<text text-anchor="middle" x="1152" y="-116.4" font-family="Times New Roman,serif" font-size="14.00">mean=0.0 days</text>
</g>
<!-- ward q start -->
<g id="node12" class="node">
<title>ward q start</title>
<path fill="none" stroke="black" d="M1691.25,-96C1691.25,-96 1634.75,-96 1634.75,-96 1628.75,-96 1622.75,-90 1622.75,-84 1622.75,-84 1622.75,-67 1622.75,-67 1622.75,-61 1628.75,-55 1634.75,-55 1634.75,-55 1691.25,-55 1691.25,-55 1697.25,-55 1703.25,-61 1703.25,-67 1703.25,-67 1703.25,-84 1703.25,-84 1703.25,-90 1697.25,-96 1691.25,-96"/>
<text text-anchor="middle" x="1663" y="-78.7" font-family="Times New Roman,serif" font-size="14.00">ward q start</text>
<text text-anchor="middle" x="1663" y="-62.2" font-family="Times New Roman,serif" font-size="14.00">n=270</text>
</g>
<!-- ct or ctp scan
end&#45;&gt;ward q start -->
<g id="edge3" class="edge">
<title>ct or ctp scan
end&#45;&gt;ward q start</title>
<path fill="none" stroke="black" stroke-width="3.19" d="M1092.21,-80.56C1143.27,-79.5 1230.39,-77.81 1305.25,-77 1412.57,-75.83 1538.06,-75.56 1607.95,-75.5"/>
<polygon fill="black" stroke="black" stroke-width="3.19" points="1607.58,-79 1617.58,-75.5 1607.57,-72 1607.58,-79"/>
<text text-anchor="middle" x="1347.25" y="-113.2" font-family="Times New Roman,serif" font-size="14.00">n=205</text>
<text text-anchor="middle" x="1347.25" y="-96.7" font-family="Times New Roman,serif" font-size="14.00">p=0.58</text>
<text text-anchor="middle" x="1347.25" y="-80.2" font-family="Times New Roman,serif" font-size="14.00">mean=0.0 days</text>
</g>
<!-- ct or ctp scan
start -->
<g id="node3" class="node">
<title>ct or ctp scan
start</title>
<path fill="none" stroke="black" d="M871.25,-110.25C871.25,-110.25 806.5,-110.25 806.5,-110.25 800.5,-110.25 794.5,-104.25 794.5,-98.25 794.5,-98.25 794.5,-64.75 794.5,-64.75 794.5,-58.75 800.5,-52.75 806.5,-52.75 806.5,-52.75 871.25,-52.75 871.25,-52.75 877.25,-52.75 883.25,-58.75 883.25,-64.75 883.25,-64.75 883.25,-98.25 883.25,-98.25 883.25,-104.25 877.25,-110.25 871.25,-110.25"/>
<text text-anchor="middle" x="838.88" y="-92.95" font-family="Times New Roman,serif" font-size="14.00">ct or ctp scan</text>
<text text-anchor="middle" x="838.88" y="-76.45" font-family="Times New Roman,serif" font-size="14.00">start</text>
<text text-anchor="middle" x="838.88" y="-59.95" font-family="Times New Roman,serif" font-size="14.00">n=353</text>
</g>
<!-- ct or ctp scan
start&#45;&gt;ct or ctp scan
end -->
<g id="edge4" class="edge">
<title>ct or ctp scan
start&#45;&gt;ct or ctp scan
end</title>
<path fill="none" stroke="black" stroke-width="5" d="M883.72,-81.5C913.74,-81.5 953.91,-81.5 986.85,-81.5"/>
<polygon fill="black" stroke="black" stroke-width="5" points="986.6,-85.88 996.6,-81.5 986.6,-77.13 986.6,-85.88"/>
<text text-anchor="middle" x="943.25" y="-117.7" font-family="Times New Roman,serif" font-size="14.00">n=353</text>
<text text-anchor="middle" x="943.25" y="-101.2" font-family="Times New Roman,serif" font-size="14.00">p=1.00</text>
<text text-anchor="middle" x="943.25" y="-84.7" font-family="Times New Roman,serif" font-size="14.00">mean=0.0 days</text>
</g>
<!-- exit -->
<g id="node4" class="node">
<title>exit</title>
<path fill="none" stroke="black" d="M2287.75,-106C2287.75,-106 2257.75,-106 2257.75,-106 2251.75,-106 2245.75,-100 2245.75,-94 2245.75,-94 2245.75,-77 2245.75,-77 2245.75,-71 2251.75,-65 2257.75,-65 2257.75,-65 2287.75,-65 2287.75,-65 2293.75,-65 2299.75,-71 2299.75,-77 2299.75,-77 2299.75,-94 2299.75,-94 2299.75,-100 2293.75,-106 2287.75,-106"/>
<text text-anchor="middle" x="2272.75" y="-88.7" font-family="Times New Roman,serif" font-size="14.00">exit</text>
<text text-anchor="middle" x="2272.75" y="-72.2" font-family="Times New Roman,serif" font-size="14.00">n=353</text>
</g>
<!-- nurse triage
start -->
<g id="node7" class="node">
<title>nurse triage
start</title>
<path fill="none" stroke="black" d="M462.75,-110.25C462.75,-110.25 407,-110.25 407,-110.25 401,-110.25 395,-104.25 395,-98.25 395,-98.25 395,-64.75 395,-64.75 395,-58.75 401,-52.75 407,-52.75 407,-52.75 462.75,-52.75 462.75,-52.75 468.75,-52.75 474.75,-58.75 474.75,-64.75 474.75,-64.75 474.75,-98.25 474.75,-98.25 474.75,-104.25 468.75,-110.25 462.75,-110.25"/>
<text text-anchor="middle" x="434.88" y="-92.95" font-family="Times New Roman,serif" font-size="14.00">nurse triage</text>
<text text-anchor="middle" x="434.88" y="-76.45" font-family="Times New Roman,serif" font-size="14.00">start</text>
<text text-anchor="middle" x="434.88" y="-59.95" font-family="Times New Roman,serif" font-size="14.00">n=353</text>
</g>
<!-- nurse q start&#45;&gt;nurse triage
start -->
<g id="edge5" class="edge">
<title>nurse q start&#45;&gt;nurse triage
start</title>
<path fill="none" stroke="black" stroke-width="5" d="M275.43,-81.5C305.33,-81.5 346.24,-81.5 379.01,-81.5"/>
<polygon fill="black" stroke="black" stroke-width="5" points="378.59,-85.88 388.59,-81.5 378.59,-77.13 378.59,-85.88"/>
<text text-anchor="middle" x="335" y="-117.7" font-family="Times New Roman,serif" font-size="14.00">n=353</text>
<text text-anchor="middle" x="335" y="-101.2" font-family="Times New Roman,serif" font-size="14.00">p=1.00</text>
<text text-anchor="middle" x="335" y="-84.7" font-family="Times New Roman,serif" font-size="14.00">mean=0.0 days</text>
</g>
<!-- nurse triage
end -->
<g id="node6" class="node">
<title>nurse triage
end</title>
<path fill="none" stroke="black" d="M662.5,-110.25C662.5,-110.25 606.75,-110.25 606.75,-110.25 600.75,-110.25 594.75,-104.25 594.75,-98.25 594.75,-98.25 594.75,-64.75 594.75,-64.75 594.75,-58.75 600.75,-52.75 606.75,-52.75 606.75,-52.75 662.5,-52.75 662.5,-52.75 668.5,-52.75 674.5,-58.75 674.5,-64.75 674.5,-64.75 674.5,-98.25 674.5,-98.25 674.5,-104.25 668.5,-110.25 662.5,-110.25"/>
<text text-anchor="middle" x="634.62" y="-92.95" font-family="Times New Roman,serif" font-size="14.00">nurse triage</text>
<text text-anchor="middle" x="634.62" y="-76.45" font-family="Times New Roman,serif" font-size="14.00">end</text>
<text text-anchor="middle" x="634.62" y="-59.95" font-family="Times New Roman,serif" font-size="14.00">n=353</text>
</g>
<!-- nurse triage
end&#45;&gt;ct or ctp scan
start -->
<g id="edge6" class="edge">
<title>nurse triage
end&#45;&gt;ct or ctp scan
start</title>
<path fill="none" stroke="black" stroke-width="5" d="M674.62,-81.5C703.88,-81.5 744.48,-81.5 777.87,-81.5"/>
<polygon fill="black" stroke="black" stroke-width="5" points="777.85,-85.88 787.85,-81.5 777.85,-77.13 777.85,-85.88"/>
<text text-anchor="middle" x="734.5" y="-117.7" font-family="Times New Roman,serif" font-size="14.00">n=353</text>
<text text-anchor="middle" x="734.5" y="-101.2" font-family="Times New Roman,serif" font-size="14.00">p=1.00</text>
<text text-anchor="middle" x="734.5" y="-84.7" font-family="Times New Roman,serif" font-size="14.00">mean=0.0 days</text>
</g>
<!-- nurse triage
start&#45;&gt;nurse triage
end -->
<g id="edge7" class="edge">
<title>nurse triage
start&#45;&gt;nurse triage
end</title>
<path fill="none" stroke="black" stroke-width="5" d="M474.94,-81.5C504.51,-81.5 545.49,-81.5 578.4,-81.5"/>
<polygon fill="black" stroke="black" stroke-width="5" points="578.06,-85.88 588.06,-81.5 578.06,-77.13 578.06,-85.88"/>
<text text-anchor="middle" x="534.75" y="-117.7" font-family="Times New Roman,serif" font-size="14.00">n=353</text>
<text text-anchor="middle" x="534.75" y="-101.2" font-family="Times New Roman,serif" font-size="14.00">p=1.00</text>
<text text-anchor="middle" x="534.75" y="-84.7" font-family="Times New Roman,serif" font-size="14.00">mean=0.0 days</text>
</g>
<!-- sdec discharge -->
<g id="node9" class="node">
<title>sdec discharge</title>
<path fill="none" stroke="black" d="M1490.75,-159C1490.75,-159 1419.25,-159 1419.25,-159 1413.25,-159 1407.25,-153 1407.25,-147 1407.25,-147 1407.25,-130 1407.25,-130 1407.25,-124 1413.25,-118 1419.25,-118 1419.25,-118 1490.75,-118 1490.75,-118 1496.75,-118 1502.75,-124 1502.75,-130 1502.75,-130 1502.75,-147 1502.75,-147 1502.75,-153 1496.75,-159 1490.75,-159"/>
<text text-anchor="middle" x="1455" y="-141.7" font-family="Times New Roman,serif" font-size="14.00">sdec discharge</text>
<text text-anchor="middle" x="1455" y="-125.2" font-family="Times New Roman,serif" font-size="14.00">n=148</text>
</g>
<!-- sdec admit&#45;&gt;sdec discharge -->
<g id="edge8" class="edge">
<title>sdec admit&#45;&gt;sdec discharge</title>
<path fill="none" stroke="black" stroke-width="2.49" d="M1287.45,-128.67C1317.06,-130.42 1359.26,-132.91 1393.77,-134.95"/>
<polygon fill="black" stroke="black" stroke-width="2.49" points="1393.11,-138.41 1403.3,-135.51 1393.52,-131.43 1393.11,-138.41"/>
<text text-anchor="middle" x="1347.25" y="-170.82" font-family="Times New Roman,serif" font-size="14.00">n=148</text>
<text text-anchor="middle" x="1347.25" y="-154.32" font-family="Times New Roman,serif" font-size="14.00">p=1.00</text>
<text text-anchor="middle" x="1347.25" y="-137.82" font-family="Times New Roman,serif" font-size="14.00">mean=0.1 days</text>
</g>
<!-- sdec discharge&#45;&gt;exit -->
<g id="edge9" class="edge">
<title>sdec discharge&#45;&gt;exit</title>
<path fill="none" stroke="black" stroke-width="1.69" d="M1502.85,-147.45C1544.47,-154.63 1607.06,-163.5 1662,-163.5 1662,-163.5 1662,-163.5 2077.5,-163.5 2135.71,-163.5 2197.13,-132.96 2234.95,-110.1"/>
<polygon fill="black" stroke="black" stroke-width="1.69" points="2236.61,-113.19 2243.26,-104.94 2232.92,-107.24 2236.61,-113.19"/>
<text text-anchor="middle" x="1865.25" y="-199.7" font-family="Times New Roman,serif" font-size="14.00">n=83</text>
<text text-anchor="middle" x="1865.25" y="-183.2" font-family="Times New Roman,serif" font-size="14.00">p=0.56</text>
<text text-anchor="middle" x="1865.25" y="-166.7" font-family="Times New Roman,serif" font-size="14.00">mean=0.0 days</text>
</g>
<!-- sdec discharge&#45;&gt;ward q start -->
<g id="edge10" class="edge">
<title>sdec discharge&#45;&gt;ward q start</title>
<path fill="none" stroke="black" stroke-width="1.47" d="M1485.81,-117.68C1496.42,-111.13 1508.73,-104.44 1520.75,-100 1549.4,-89.41 1583.03,-83.34 1610.29,-79.9"/>
<polygon fill="black" stroke="black" stroke-width="1.47" points="1610.59,-83.39 1620.12,-78.75 1609.78,-76.43 1610.59,-83.39"/>
<text text-anchor="middle" x="1562.75" y="-136.2" font-family="Times New Roman,serif" font-size="14.00">n=65</text>
<text text-anchor="middle" x="1562.75" y="-119.7" font-family="Times New Roman,serif" font-size="14.00">p=0.44</text>
<text text-anchor="middle" x="1562.75" y="-103.2" font-family="Times New Roman,serif" font-size="14.00">mean=0.0 days</text>
</g>
<!-- ward admit -->
<g id="node10" class="node">
<title>ward admit</title>
<path fill="none" stroke="black" d="M1892.38,-96C1892.38,-96 1838.12,-96 1838.12,-96 1832.12,-96 1826.12,-90 1826.12,-84 1826.12,-84 1826.12,-67 1826.12,-67 1826.12,-61 1832.12,-55 1838.12,-55 1838.12,-55 1892.38,-55 1892.38,-55 1898.38,-55 1904.38,-61 1904.38,-67 1904.38,-67 1904.38,-84 1904.38,-84 1904.38,-90 1898.38,-96 1892.38,-96"/>
<text text-anchor="middle" x="1865.25" y="-78.7" font-family="Times New Roman,serif" font-size="14.00">ward admit</text>
<text text-anchor="middle" x="1865.25" y="-62.2" font-family="Times New Roman,serif" font-size="14.00">n=270</text>
</g>
<!-- ward admit&#45;&gt;exit -->
<g id="edge11" class="edge">
<title>ward admit&#45;&gt;exit</title>
<path fill="none" stroke="black" stroke-width="0.8" stroke-dasharray="5,2" d="M1904.76,-76.45C1982.52,-78.37 2157.37,-82.68 2234.26,-84.58"/>
<polygon fill="black" stroke="black" stroke-width="0.8" points="2234.01,-88.07 2244.09,-84.82 2234.18,-81.07 2234.01,-88.07"/>
<text text-anchor="middle" x="2076.5" y="-118.02" font-family="Times New Roman,serif" font-size="14.00">n=10</text>
<text text-anchor="middle" x="2076.5" y="-101.52" font-family="Times New Roman,serif" font-size="14.00">p=0.04</text>
<text text-anchor="middle" x="2076.5" y="-85.02" font-family="Times New Roman,serif" font-size="14.00">mean=0.0 days</text>
</g>
<!-- ward discharge -->
<g id="node11" class="node">
<title>ward discharge</title>
<path fill="none" stroke="black" d="M2113.75,-41C2113.75,-41 2039.25,-41 2039.25,-41 2033.25,-41 2027.25,-35 2027.25,-29 2027.25,-29 2027.25,-12 2027.25,-12 2027.25,-6 2033.25,0 2039.25,0 2039.25,0 2113.75,0 2113.75,0 2119.75,0 2125.75,-6 2125.75,-12 2125.75,-12 2125.75,-29 2125.75,-29 2125.75,-35 2119.75,-41 2113.75,-41"/>
<text text-anchor="middle" x="2076.5" y="-23.7" font-family="Times New Roman,serif" font-size="14.00">ward discharge</text>
<text text-anchor="middle" x="2076.5" y="-7.2" font-family="Times New Roman,serif" font-size="14.00">n=260</text>
</g>
<!-- ward admit&#45;&gt;ward discharge -->
<g id="edge12" class="edge">
<title>ward admit&#45;&gt;ward discharge</title>
<path fill="none" stroke="black" stroke-width="3.86" d="M1882.41,-54.69C1893.1,-42.67 1908.25,-28.66 1925.25,-22 1952.15,-11.46 1983.9,-9.76 2011.27,-11.23"/>
<polygon fill="black" stroke="black" stroke-width="3.86" points="2010.74,-14.7 2020.98,-11.97 2011.28,-7.72 2010.74,-14.7"/>
<text text-anchor="middle" x="1967.25" y="-58.2" font-family="Times New Roman,serif" font-size="14.00">n=260</text>
<text text-anchor="middle" x="1967.25" y="-41.7" font-family="Times New Roman,serif" font-size="14.00">p=0.96</text>
<text text-anchor="middle" x="1967.25" y="-25.2" font-family="Times New Roman,serif" font-size="14.00">mean=4.9 days</text>
</g>
<!-- ward discharge&#45;&gt;exit -->
<g id="edge13" class="edge">
<title>ward discharge&#45;&gt;exit</title>
<path fill="none" stroke="black" stroke-width="3.86" d="M2125.96,-10.09C2156.85,-5.99 2196.75,-5.57 2227.75,-22 2239.67,-28.32 2249.01,-39.47 2255.96,-50.68"/>
<polygon fill="black" stroke="black" stroke-width="3.86" points="2252.86,-52.31 2260.71,-59.42 2259.01,-48.97 2252.86,-52.31"/>
<text text-anchor="middle" x="2185.75" y="-58.2" font-family="Times New Roman,serif" font-size="14.00">n=260</text>
<text text-anchor="middle" x="2185.75" y="-41.7" font-family="Times New Roman,serif" font-size="14.00">p=1.00</text>
<text text-anchor="middle" x="2185.75" y="-25.2" font-family="Times New Roman,serif" font-size="14.00">mean=0.0 days</text>
</g>
<!-- ward q start&#45;&gt;ward admit -->
<g id="edge14" class="edge">
<title>ward q start&#45;&gt;ward admit</title>
<path fill="none" stroke="black" stroke-width="3.98" d="M1703.56,-75.5C1734.03,-75.5 1776.47,-75.5 1810.09,-75.5"/>
<polygon fill="black" stroke="black" stroke-width="3.98" points="1809.77,-79 1819.77,-75.5 1809.77,-72 1809.77,-79"/>
<text text-anchor="middle" x="1763.25" y="-111.7" font-family="Times New Roman,serif" font-size="14.00">n=270</text>
<text text-anchor="middle" x="1763.25" y="-95.2" font-family="Times New Roman,serif" font-size="14.00">p=1.00</text>
<text text-anchor="middle" x="1763.25" y="-78.7" font-family="Times New Roman,serif" font-size="14.00">mean=0.0 days</text>
</g>
</g>
</svg>
