<?xml version="1.0" encoding="UTF-8" standalone="no"?>
<!DOCTYPE svg PUBLIC "-//W3C//DTD SVG 1.1//EN"
 "http://www.w3.org/Graphics/SVG/1.1/DTD/svg11.dtd">
<!-- Generated by graphviz version 2.43.0 (0)
 -->
<!-- Title: %3 Pages: 1 -->
<svg width="1257pt" height="110pt"
 viewBox="0.00 0.00 1257.00 109.50" xmlns="http://www.w3.org/2000/svg" xmlns:xlink="http://www.w3.org/1999/xlink">
<g id="graph0" class="graph" transform="scale(1 1) rotate(0) translate(4 105.5)">
<title>%3</title>
<polygon fill="white" stroke="transparent" points="-4,4 -4,-105.5 1253,-105.5 1253,4 -4,4"/>
<text text-anchor="middle" x="624.5" y="-81.5" font-family="Times,serif" font-size="20.00">Run 8 of 100 (representative — closest to median time in system)</text>
<!-- arrival -->
<g id="node1" class="node">
<title>arrival</title>
<path fill="none" stroke="black" d="M52,-45.5C52,-45.5 12,-45.5 12,-45.5 6,-45.5 0,-39.5 0,-33.5 0,-33.5 0,-19.5 0,-19.5 0,-13.5 6,-7.5 12,-7.5 12,-7.5 52,-7.5 52,-7.5 58,-7.5 64,-13.5 64,-19.5 64,-19.5 64,-33.5 64,-33.5 64,-39.5 58,-45.5 52,-45.5"/>
<text text-anchor="middle" x="32" y="-30.3" font-family="Times,serif" font-size="14.00">arrival</text>
<text text-anchor="middle" x="32" y="-15.3" font-family="Times,serif" font-size="14.00">n=91</text>
</g>
<!-- treatment_wait_
begins -->
<g id="node5" class="node">
<title>treatment_wait_
begins</title>
<path fill="none" stroke="black" d="M357,-53C357,-53 248,-53 248,-53 242,-53 236,-47 236,-41 236,-41 236,-12 236,-12 236,-6 242,0 248,0 248,0 357,0 357,0 363,0 369,-6 369,-12 369,-12 369,-41 369,-41 369,-47 363,-53 357,-53"/>
<text text-anchor="middle" x="302.5" y="-37.8" font-family="Times,serif" font-size="14.00">treatment_wait_</text>
<text text-anchor="middle" x="302.5" y="-22.8" font-family="Times,serif" font-size="14.00">begins</text>
<text text-anchor="middle" x="302.5" y="-7.8" font-family="Times,serif" font-size="14.00">n=91</text>
</g>
<!-- arrival&#45;&gt;treatment_wait_
begins -->
<g id="edge1" class="edge">
<title>arrival&#45;&gt;treatment_wait_
begins</title>
<path fill="none" stroke="black" stroke-width="5" d="M64.06,-26.5C103.29,-26.5 172.12,-26.5 225.61,-26.5"/>
<polygon fill="black" stroke="black" stroke-width="5" points="225.75,-30.88 235.75,-26.5 225.75,-22.13 225.75,-30.88"/>
<text text-anchor="middle" x="150" y="-60.3" font-family="Times,serif" font-size="14.00">n=91</text>
<text text-anchor="middle" x="150" y="-45.3" font-family="Times,serif" font-size="14.00">p=1.00</text>
<text text-anchor="middle" x="150" y="-30.3" font-family="Times,serif" font-size="14.00">mean=0.0 minutes</text>
</g>
<!-- depart -->
<g id="node2" class="node">
<title>depart</title>
<path fill="none" stroke="black" d="M1237,-45.5C1237,-45.5 1197,-45.5 1197,-45.5 1191,-45.5 1185,-39.5 1185,-33.5 1185,-33.5 1185,-19.5 1185,-19.5 1185,-13.5 1191,-7.5 1197,-7.5 1197,-7.5 1237,-7.5 1237,-7.5 1243,-7.5 1249,-13.5 1249,-19.5 1249,-19.5 1249,-33.5 1249,-33.5 1249,-39.5 1243,-45.5 1237,-45.5"/>
<text text-anchor="middle" x="1217" y="-30.3" font-family="Times,serif" font-size="14.00">depart</text>
<text text-anchor="middle" x="1217" y="-15.3" font-family="Times,serif" font-size="14.00">n=52</text>
</g>
<!-- treatment_begin
s -->
<g id="node3" class="node">
<title>treatment_begin
s</title>
<path fill="none" stroke="black" d="M682,-53C682,-53 571,-53 571,-53 565,-53 559,-47 559,-41 559,-41 559,-12 559,-12 559,-6 565,0 571,0 571,0 682,0 682,0 688,0 694,-6 694,-12 694,-12 694,-41 694,-41 694,-47 688,-53 682,-53"/>
<text text-anchor="middle" x="626.5" y="-37.8" font-family="Times,serif" font-size="14.00">treatment_begin</text>
<text text-anchor="middle" x="626.5" y="-22.8" font-family="Times,serif" font-size="14.00">s</text>
<text text-anchor="middle" x="626.5" y="-7.8" font-family="Times,serif" font-size="14.00">n=52</text>
</g>
<!-- treatment_compl
ete -->
<g id="node4" class="node">
<title>treatment_compl
ete</title>
<path fill="none" stroke="black" d="M1001,-53C1001,-53 887,-53 887,-53 881,-53 875,-47 875,-41 875,-41 875,-12 875,-12 875,-6 881,0 887,0 887,0 1001,0 1001,0 1007,0 1013,-6 1013,-12 1013,-12 1013,-41 1013,-41 1013,-47 1007,-53 1001,-53"/>
<text text-anchor="middle" x="944" y="-37.8" font-family="Times,serif" font-size="14.00">treatment_compl</text>
<text text-anchor="middle" x="944" y="-22.8" font-family="Times,serif" font-size="14.00">ete</text>
<text text-anchor="middle" x="944" y="-7.8" font-family="Times,serif" font-size="14.00">n=52</text>
</g>
<!-- treatment_begin
s&#45;&gt;treatment_compl
ete -->
<g id="edge2" class="edge">
<title>treatment_begin
s&#45;&gt;treatment_compl
ete</title>
<path fill="none" stroke="black" stroke-width="1.24" d="M694.02,-26.5C743.85,-26.5 812.19,-26.5 864.66,-26.5"/>
<polygon fill="black" stroke="black" stroke-width="1.24" points="864.93,-30 874.93,-26.5 864.93,-23 864.93,-30"/>
<text text-anchor="middle" x="784.5" y="-60.3" font-family="Times,serif" font-size="14.00">n=48</text>
<text text-anchor="middle" x="784.5" y="-45.3" font-family="Times,serif" font-size="14.00">p=1.00</text>
<text text-anchor="middle" x="784.5" y="-30.3" font-family="Times,serif" font-size="14.00">mean=39.2 minutes</text>
</g>
<!-- treatment_compl
ete&#45;&gt;depart -->
<g id="edge3" class="edge">
<title>treatment_compl
ete&#45;&gt;depart</title>
<path fill="none" stroke="black" stroke-width="1.59" d="M1013.03,-26.5C1063.88,-26.5 1131.73,-26.5 1174.65,-26.5"/>
<polygon fill="black" stroke="black" stroke-width="1.59" points="1174.74,-30 1184.74,-26.5 1174.74,-23 1174.74,-30"/>
<text text-anchor="middle" x="1099" y="-60.3" font-family="Times,serif" font-size="14.00">n=52</text>
<text text-anchor="middle" x="1099" y="-45.3" font-family="Times,serif" font-size="14.00">p=1.00</text>
<text text-anchor="middle" x="1099" y="-30.3" font-family="Times,serif" font-size="14.00">mean=0.0 minutes</text>
</g>
<!-- treatment_wait_
begins&#45;&gt;treatment_begin
s -->
<g id="edge4" class="edge">
<title>treatment_wait_
begins&#45;&gt;treatment_begin
s</title>
<path fill="none" stroke="black" stroke-width="0.8" d="M369.05,-26.5C421.16,-26.5 494.14,-26.5 548.93,-26.5"/>
<polygon fill="black" stroke="black" stroke-width="0.8" points="548.94,-30 558.94,-26.5 548.94,-23 548.94,-30"/>
<text text-anchor="middle" x="464" y="-60.3" font-family="Times,serif" font-size="14.00">n=43</text>
<text text-anchor="middle" x="464" y="-45.3" font-family="Times,serif" font-size="14.00">p=1.00</text>
<text text-anchor="middle" x="464" y="-30.3" font-family="Times,serif" font-size="14.00">mean=168.1 minutes</text>
</g>
</g>
</svg>
