<?xml version="1.0" encoding="UTF-8" standalone="no"?>
<!DOCTYPE svg PUBLIC "-//W3C//DTD SVG 1.1//EN"
 "http://www.w3.org/Graphics/SVG/1.1/DTD/svg11.dtd">
<!-- Generated by graphviz version 12.2.1 (20241206.2353)
 -->
<!-- Pages: 1 -->
<svg width="2247pt" height="252pt"
 viewBox="0.00 0.00 2246.75 251.50" xmlns="http://www.w3.org/2000/svg" xmlns:xlink="http://www.w3.org/1999/xlink">
<g id="graph0" class="graph" transform="scale(1 1) rotate(0) translate(4 247.5)">
<polygon fill="white" stroke="none" points="-4,4 -4,-247.5 2242.75,-247.5 2242.75,4 -4,4"/>
<text text-anchor="middle" x="1119.38" y="-220.5" font-family="Times New Roman,serif" font-size="20.00">Stroke Type: I</text>
<!-- clock start -->
<g id="node1" class="node">
<title>clock start</title>
<path fill="none" stroke="black" d="M60.25,-102C60.25,-102 12,-102 12,-102 6,-102 0,-96 0,-90 0,-90 0,-73 0,-73 0,-67 6,-61 12,-61 12,-61 60.25,-61 60.25,-61 66.25,-61 72.25,-67 72.25,-73 72.25,-73 72.25,-90 72.25,-90 72.25,-96 66.25,-102 60.25,-102"/>
<text text-anchor="middle" x="36.12" y="-84.7" font-family="Times New Roman,serif" font-size="14.00">clock start</text>
<text text-anchor="middle" x="36.12" y="-68.2" font-family="Times New Roman,serif" font-size="14.00">n=1716</text>
</g>
<!-- nurse q start -->
<g id="node5" class="node">
<title>nurse q start</title>
<path fill="none" stroke="black" d="M257,-102C257,-102 198.25,-102 198.25,-102 192.25,-102 186.25,-96 186.25,-90 186.25,-90 186.25,-73 186.25,-73 186.25,-67 192.25,-61 198.25,-61 198.25,-61 257,-61 257,-61 263,-61 269,-67 269,-73 269,-73 269,-90 269,-90 269,-96 263,-102 257,-102"/>
<text text-anchor="middle" x="227.62" y="-84.7" font-family="Times New Roman,serif" font-size="14.00">nurse q start</text>
<text text-anchor="middle" x="227.62" y="-68.2" font-family="Times New Roman,serif" font-size="14.00">n=1716</text>
</g>
<!-- clock start&#45;&gt;nurse q start -->
<g id="edge1" class="edge">
<title>clock start&#45;&gt;nurse q start</title>
<path fill="none" stroke="black" stroke-width="5" d="M72.32,-81.5C99.76,-81.5 138.4,-81.5 170.14,-81.5"/>
<polygon fill="black" stroke="black" stroke-width="5" points="169.79,-85.88 179.79,-81.5 169.79,-77.13 169.79,-85.88"/>
<text text-anchor="middle" x="129.25" y="-117.7" font-family="Times New Roman,serif" font-size="14.00">n=1716</text>
<text text-anchor="middle" x="129.25" y="-101.2" font-family="Times New Roman,serif" font-size="14.00">p=1.00</text>
<text text-anchor="middle" x="129.25" y="-84.7" font-family="Times New Roman,serif" font-size="14.00">max=0.0 days</text>
</g>
<!-- ct or ctp scan
end -->
<g id="node2" class="node">
<title>ct or ctp scan
end</title>
<path fill="none" stroke="black" d="M1050,-110.25C1050,-110.25 985.25,-110.25 985.25,-110.25 979.25,-110.25 973.25,-104.25 973.25,-98.25 973.25,-98.25 973.25,-64.75 973.25,-64.75 973.25,-58.75 979.25,-52.75 985.25,-52.75 985.25,-52.75 1050,-52.75 1050,-52.75 1056,-52.75 1062,-58.75 1062,-64.75 1062,-64.75 1062,-98.25 1062,-98.25 1062,-104.25 1056,-110.25 1050,-110.25"/>
<text text-anchor="middle" x="1017.62" y="-92.95" font-family="Times New Roman,serif" font-size="14.00">ct or ctp scan</text>
<text text-anchor="middle" x="1017.62" y="-76.45" font-family="Times New Roman,serif" font-size="14.00">end</text>
<text text-anchor="middle" x="1017.62" y="-59.95" font-family="Times New Roman,serif" font-size="14.00">n=1716</text>
</g>
<!-- sdec admit -->
<g id="node8" class="node">
<title>sdec admit</title>
<path fill="none" stroke="black" d="M1239.25,-147C1239.25,-147 1188,-147 1188,-147 1182,-147 1176,-141 1176,-135 1176,-135 1176,-118 1176,-118 1176,-112 1182,-106 1188,-106 1188,-106 1239.25,-106 1239.25,-106 1245.25,-106 1251.25,-112 1251.25,-118 1251.25,-118 1251.25,-135 1251.25,-135 1251.25,-141 1245.25,-147 1239.25,-147"/>
<text text-anchor="middle" x="1213.62" y="-129.7" font-family="Times New Roman,serif" font-size="14.00">sdec admit</text>
<text text-anchor="middle" x="1213.62" y="-113.2" font-family="Times New Roman,serif" font-size="14.00">n=774</text>
</g>
<!-- ct or ctp scan
end&#45;&gt;sdec admit -->
<g id="edge2" class="edge">
<title>ct or ctp scan
end&#45;&gt;sdec admit</title>
<path fill="none" stroke="black" stroke-width="2.65" d="M1062.16,-91.6C1091.81,-98.48 1131.14,-107.6 1162.15,-114.79"/>
<polygon fill="black" stroke="black" stroke-width="2.65" points="1161.32,-118.19 1171.85,-117.04 1162.9,-111.37 1161.32,-118.19"/>
<text text-anchor="middle" x="1119" y="-149.4" font-family="Times New Roman,serif" font-size="14.00">n=774</text>
<text text-anchor="middle" x="1119" y="-132.9" font-family="Times New Roman,serif" font-size="14.00">p=0.45</text>
<text text-anchor="middle" x="1119" y="-116.4" font-family="Times New Roman,serif" font-size="14.00">max=0.0 days</text>
</g>
<!-- ward q start -->
<g id="node12" class="node">
<title>ward q start</title>
<path fill="none" stroke="black" d="M1643.25,-96C1643.25,-96 1586.75,-96 1586.75,-96 1580.75,-96 1574.75,-90 1574.75,-84 1574.75,-84 1574.75,-67 1574.75,-67 1574.75,-61 1580.75,-55 1586.75,-55 1586.75,-55 1643.25,-55 1643.25,-55 1649.25,-55 1655.25,-61 1655.25,-67 1655.25,-67 1655.25,-84 1655.25,-84 1655.25,-90 1649.25,-96 1643.25,-96"/>
<text text-anchor="middle" x="1615" y="-78.7" font-family="Times New Roman,serif" font-size="14.00">ward q start</text>
<text text-anchor="middle" x="1615" y="-62.2" font-family="Times New Roman,serif" font-size="14.00">n=1458</text>
</g>
<!-- ct or ctp scan
end&#45;&gt;ward q start -->
<g id="edge3" class="edge">
<title>ct or ctp scan
end&#45;&gt;ward q start</title>
<path fill="none" stroke="black" stroke-width="3.07" d="M1062.09,-80.54C1112.07,-79.48 1196.58,-77.81 1269.25,-77 1372.05,-75.85 1492.09,-75.57 1559.97,-75.51"/>
<polygon fill="black" stroke="black" stroke-width="3.07" points="1559.8,-79.01 1569.8,-75.5 1559.8,-72.01 1559.8,-79.01"/>
<text text-anchor="middle" x="1308.25" y="-113.2" font-family="Times New Roman,serif" font-size="14.00">n=942</text>
<text text-anchor="middle" x="1308.25" y="-96.7" font-family="Times New Roman,serif" font-size="14.00">p=0.55</text>
<text text-anchor="middle" x="1308.25" y="-80.2" font-family="Times New Roman,serif" font-size="14.00">max=0.0 days</text>
</g>
<!-- ct or ctp scan
start -->
<g id="node3" class="node">
<title>ct or ctp scan
start</title>
<path fill="none" stroke="black" d="M847.25,-110.25C847.25,-110.25 782.5,-110.25 782.5,-110.25 776.5,-110.25 770.5,-104.25 770.5,-98.25 770.5,-98.25 770.5,-64.75 770.5,-64.75 770.5,-58.75 776.5,-52.75 782.5,-52.75 782.5,-52.75 847.25,-52.75 847.25,-52.75 853.25,-52.75 859.25,-58.75 859.25,-64.75 859.25,-64.75 859.25,-98.25 859.25,-98.25 859.25,-104.25 853.25,-110.25 847.25,-110.25"/>
<text text-anchor="middle" x="814.88" y="-92.95" font-family="Times New Roman,serif" font-size="14.00">ct or ctp scan</text>
<text text-anchor="middle" x="814.88" y="-76.45" font-family="Times New Roman,serif" font-size="14.00">start</text>
<text text-anchor="middle" x="814.88" y="-59.95" font-family="Times New Roman,serif" font-size="14.00">n=1716</text>
</g>
<!-- ct or ctp scan
start&#45;&gt;ct or ctp scan
end -->
<g id="edge4" class="edge">
<title>ct or ctp scan
start&#45;&gt;ct or ctp scan
end</title>
<path fill="none" stroke="black" stroke-width="5" d="M859.43,-81.5C887.88,-81.5 925.4,-81.5 956.65,-81.5"/>
<polygon fill="black" stroke="black" stroke-width="5" points="956.57,-85.88 966.57,-81.5 956.57,-77.13 956.57,-85.88"/>
<text text-anchor="middle" x="916.25" y="-117.7" font-family="Times New Roman,serif" font-size="14.00">n=1716</text>
<text text-anchor="middle" x="916.25" y="-101.2" font-family="Times New Roman,serif" font-size="14.00">p=1.00</text>
<text text-anchor="middle" x="916.25" y="-84.7" font-family="Times New Roman,serif" font-size="14.00">max=0.0 days</text>
</g>
<!-- exit -->
<g id="node4" class="node">
<title>exit</title>
<path fill="none" stroke="black" d="M2226.75,-106C2226.75,-106 2192.75,-106 2192.75,-106 2186.75,-106 2180.75,-100 2180.75,-94 2180.75,-94 2180.75,-77 2180.75,-77 2180.75,-71 2186.75,-65 2192.75,-65 2192.75,-65 2226.75,-65 2226.75,-65 2232.75,-65 2238.75,-71 2238.75,-77 2238.75,-77 2238.75,-94 2238.75,-94 2238.75,-100 2232.75,-106 2226.75,-106"/>
<text text-anchor="middle" x="2209.75" y="-88.7" font-family="Times New Roman,serif" font-size="14.00">exit</text>
<text text-anchor="middle" x="2209.75" y="-72.2" font-family="Times New Roman,serif" font-size="14.00">n=1716</text>
</g>
<!-- nurse triage
start -->
<g id="node7" class="node">
<title>nurse triage
start</title>
<path fill="none" stroke="black" d="M450.75,-110.25C450.75,-110.25 395,-110.25 395,-110.25 389,-110.25 383,-104.25 383,-98.25 383,-98.25 383,-64.75 383,-64.75 383,-58.75 389,-52.75 395,-52.75 395,-52.75 450.75,-52.75 450.75,-52.75 456.75,-52.75 462.75,-58.75 462.75,-64.75 462.75,-64.75 462.75,-98.25 462.75,-98.25 462.75,-104.25 456.75,-110.25 450.75,-110.25"/>
<text text-anchor="middle" x="422.88" y="-92.95" font-family="Times New Roman,serif" font-size="14.00">nurse triage</text>
<text text-anchor="middle" x="422.88" y="-76.45" font-family="Times New Roman,serif" font-size="14.00">start</text>
<text text-anchor="middle" x="422.88" y="-59.95" font-family="Times New Roman,serif" font-size="14.00">n=1716</text>
</g>
<!-- nurse q start&#45;&gt;nurse triage
start -->
<g id="edge5" class="edge">
<title>nurse q start&#45;&gt;nurse triage
start</title>
<path fill="none" stroke="black" stroke-width="5" d="M269.14,-81.5C297.47,-81.5 335.65,-81.5 366.75,-81.5"/>
<polygon fill="black" stroke="black" stroke-width="5" points="366.5,-85.88 376.5,-81.5 366.5,-77.13 366.5,-85.88"/>
<text text-anchor="middle" x="326" y="-117.7" font-family="Times New Roman,serif" font-size="14.00">n=1716</text>
<text text-anchor="middle" x="326" y="-101.2" font-family="Times New Roman,serif" font-size="14.00">p=1.00</text>
<text text-anchor="middle" x="326" y="-84.7" font-family="Times New Roman,serif" font-size="14.00">max=0.1 days</text>
</g>
<!-- nurse triage
end -->
<g id="node6" class="node">
<title>nurse triage
end</title>
<path fill="none" stroke="black" d="M644.5,-110.25C644.5,-110.25 588.75,-110.25 588.75,-110.25 582.75,-110.25 576.75,-104.25 576.75,-98.25 576.75,-98.25 576.75,-64.75 576.75,-64.75 576.75,-58.75 582.75,-52.75 588.75,-52.75 588.75,-52.75 644.5,-52.75 644.5,-52.75 650.5,-52.75 656.5,-58.75 656.5,-64.75 656.5,-64.75 656.5,-98.25 656.5,-98.25 656.5,-104.25 650.5,-110.25 644.5,-110.25"/>
<text text-anchor="middle" x="616.62" y="-92.95" font-family="Times New Roman,serif" font-size="14.00">nurse triage</text>
<text text-anchor="middle" x="616.62" y="-76.45" font-family="Times New Roman,serif" font-size="14.00">end</text>
<text text-anchor="middle" x="616.62" y="-59.95" font-family="Times New Roman,serif" font-size="14.00">n=1716</text>
</g>
<!-- nurse triage
end&#45;&gt;ct or ctp scan
start -->
<g id="edge6" class="edge">
<title>nurse triage
end&#45;&gt;ct or ctp scan
start</title>
<path fill="none" stroke="black" stroke-width="5" d="M656.87,-81.5C684.78,-81.5 722.77,-81.5 754.39,-81.5"/>
<polygon fill="black" stroke="black" stroke-width="5" points="754.02,-85.88 764.02,-81.5 754.02,-77.13 754.02,-85.88"/>
<text text-anchor="middle" x="713.5" y="-117.7" font-family="Times New Roman,serif" font-size="14.00">n=1716</text>
<text text-anchor="middle" x="713.5" y="-101.2" font-family="Times New Roman,serif" font-size="14.00">p=1.00</text>
<text text-anchor="middle" x="713.5" y="-84.7" font-family="Times New Roman,serif" font-size="14.00">max=0.0 days</text>
</g>
<!-- nurse triage
start&#45;&gt;nurse triage
end -->
<g id="edge7" class="edge">
<title>nurse triage
start&#45;&gt;nurse triage
end</title>
<path fill="none" stroke="black" stroke-width="5" d="M463.14,-81.5C491.19,-81.5 529.31,-81.5 560.42,-81.5"/>
<polygon fill="black" stroke="black" stroke-width="5" points="560.17,-85.88 570.17,-81.5 560.17,-77.13 560.17,-85.88"/>
<text text-anchor="middle" x="519.75" y="-117.7" font-family="Times New Roman,serif" font-size="14.00">n=1716</text>
<text text-anchor="middle" x="519.75" y="-101.2" font-family="Times New Roman,serif" font-size="14.00">p=1.00</text>
<text text-anchor="middle" x="519.75" y="-84.7" font-family="Times New Roman,serif" font-size="14.00">max=0.1 days</text>
</g>
<!-- sdec discharge -->
<g id="node9" class="node">
<title>sdec discharge</title>
<path fill="none" stroke="black" d="M1448.75,-159C1448.75,-159 1377.25,-159 1377.25,-159 1371.25,-159 1365.25,-153 1365.25,-147 1365.25,-147 1365.25,-130 1365.25,-130 1365.25,-124 1371.25,-118 1377.25,-118 1377.25,-118 1448.75,-118 1448.75,-118 1454.75,-118 1460.75,-124 1460.75,-130 1460.75,-130 1460.75,-147 1460.75,-147 1460.75,-153 1454.75,-159 1448.75,-159"/>
<text text-anchor="middle" x="1413" y="-141.7" font-family="Times New Roman,serif" font-size="14.00">sdec discharge</text>
<text text-anchor="middle" x="1413" y="-125.2" font-family="Times New Roman,serif" font-size="14.00">n=774</text>
</g>
<!-- sdec admit&#45;&gt;sdec discharge -->
<g id="edge8" class="edge">
<title>sdec admit&#45;&gt;sdec discharge</title>
<path fill="none" stroke="black" stroke-width="2.65" d="M1251.75,-128.76C1279.67,-130.45 1318.53,-132.82 1350.99,-134.79"/>
<polygon fill="black" stroke="black" stroke-width="2.65" points="1350.73,-138.28 1360.92,-135.39 1351.15,-131.29 1350.73,-138.28"/>
<text text-anchor="middle" x="1308.25" y="-170.48" font-family="Times New Roman,serif" font-size="14.00">n=774</text>
<text text-anchor="middle" x="1308.25" y="-153.98" font-family="Times New Roman,serif" font-size="14.00">p=1.00</text>
<text text-anchor="middle" x="1308.25" y="-137.48" font-family="Times New Roman,serif" font-size="14.00">max=0.4 days</text>
</g>
<!-- sdec discharge&#45;&gt;exit -->
<g id="edge9" class="edge">
<title>sdec discharge&#45;&gt;exit</title>
<path fill="none" stroke="black" stroke-width="1.36" d="M1461.07,-147.74C1501.47,-154.86 1561.34,-163.5 1614,-163.5 1614,-163.5 1614,-163.5 2018.5,-163.5 2074.46,-163.5 2133.22,-134.25 2170.38,-111.58"/>
<polygon fill="black" stroke="black" stroke-width="1.36" points="2171.9,-114.75 2178.52,-106.48 2168.18,-108.82 2171.9,-114.75"/>
<text text-anchor="middle" x="1808.38" y="-199.7" font-family="Times New Roman,serif" font-size="14.00">n=258</text>
<text text-anchor="middle" x="1808.38" y="-183.2" font-family="Times New Roman,serif" font-size="14.00">p=0.33</text>
<text text-anchor="middle" x="1808.38" y="-166.7" font-family="Times New Roman,serif" font-size="14.00">max=0.0 days</text>
</g>
<!-- sdec discharge&#45;&gt;ward q start -->
<g id="edge10" class="edge">
<title>sdec discharge&#45;&gt;ward q start</title>
<path fill="none" stroke="black" stroke-width="2" d="M1444.15,-117.54C1454.69,-111.05 1466.87,-104.44 1478.75,-100 1505.21,-90.11 1536.11,-84.13 1561.7,-80.55"/>
<polygon fill="black" stroke="black" stroke-width="2" points="1562.07,-84.03 1571.54,-79.28 1561.17,-77.09 1562.07,-84.03"/>
<text text-anchor="middle" x="1517.75" y="-136.2" font-family="Times New Roman,serif" font-size="14.00">n=516</text>
<text text-anchor="middle" x="1517.75" y="-119.7" font-family="Times New Roman,serif" font-size="14.00">p=0.67</text>
<text text-anchor="middle" x="1517.75" y="-103.2" font-family="Times New Roman,serif" font-size="14.00">max=0.0 days</text>
</g>
<!-- ward admit -->
<g id="node10" class="node">
<title>ward admit</title>
<path fill="none" stroke="black" d="M1835.5,-96C1835.5,-96 1781.25,-96 1781.25,-96 1775.25,-96 1769.25,-90 1769.25,-84 1769.25,-84 1769.25,-67 1769.25,-67 1769.25,-61 1775.25,-55 1781.25,-55 1781.25,-55 1835.5,-55 1835.5,-55 1841.5,-55 1847.5,-61 1847.5,-67 1847.5,-67 1847.5,-84 1847.5,-84 1847.5,-90 1841.5,-96 1835.5,-96"/>
<text text-anchor="middle" x="1808.38" y="-78.7" font-family="Times New Roman,serif" font-size="14.00">ward admit</text>
<text text-anchor="middle" x="1808.38" y="-62.2" font-family="Times New Roman,serif" font-size="14.00">n=1458</text>
</g>
<!-- ward admit&#45;&gt;exit -->
<g id="edge11" class="edge">
<title>ward admit&#45;&gt;exit</title>
<path fill="none" stroke="black" stroke-width="0.8" stroke-dasharray="5,2" d="M1847.67,-76.46C1923.62,-78.36 2092.62,-82.59 2169.41,-84.52"/>
<polygon fill="black" stroke="black" stroke-width="0.8" points="2169.19,-88.01 2179.27,-84.76 2169.37,-81.01 2169.19,-88.01"/>
<text text-anchor="middle" x="2017.5" y="-118.02" font-family="Times New Roman,serif" font-size="14.00">n=35</text>
<text text-anchor="middle" x="2017.5" y="-101.52" font-family="Times New Roman,serif" font-size="14.00">p=0.02</text>
<text text-anchor="middle" x="2017.5" y="-85.02" font-family="Times New Roman,serif" font-size="14.00">max=0.0 days</text>
</g>
<!-- ward discharge -->
<g id="node11" class="node">
<title>ward discharge</title>
<path fill="none" stroke="black" d="M2054.75,-41C2054.75,-41 1980.25,-41 1980.25,-41 1974.25,-41 1968.25,-35 1968.25,-29 1968.25,-29 1968.25,-12 1968.25,-12 1968.25,-6 1974.25,0 1980.25,0 1980.25,0 2054.75,0 2054.75,0 2060.75,0 2066.75,-6 2066.75,-12 2066.75,-12 2066.75,-29 2066.75,-29 2066.75,-35 2060.75,-41 2054.75,-41"/>
<text text-anchor="middle" x="2017.5" y="-23.7" font-family="Times New Roman,serif" font-size="14.00">ward discharge</text>
<text text-anchor="middle" x="2017.5" y="-7.2" font-family="Times New Roman,serif" font-size="14.00">n=1423</text>
</g>
<!-- ward admit&#45;&gt;ward discharge -->
<g id="edge12" class="edge">
<title>ward admit&#45;&gt;ward discharge</title>
<path fill="none" stroke="black" stroke-width="4.27" d="M1824.53,-54.71C1834.63,-42.7 1849.04,-28.68 1865.5,-22 1892.51,-11.03 1924.54,-9.31 1952.13,-10.87"/>
<polygon fill="black" stroke="black" stroke-width="4.27" points="1951.45,-14.56 1961.71,-11.64 1952.04,-7.11 1951.45,-14.56"/>
<text text-anchor="middle" x="1907.88" y="-58.2" font-family="Times New Roman,serif" font-size="14.00">n=1423</text>
<text text-anchor="middle" x="1907.88" y="-41.7" font-family="Times New Roman,serif" font-size="14.00">p=0.98</text>
<text text-anchor="middle" x="1907.88" y="-25.2" font-family="Times New Roman,serif" font-size="14.00">max=57.4 days</text>
</g>
<!-- ward discharge&#45;&gt;exit -->
<g id="edge13" class="edge">
<title>ward discharge&#45;&gt;exit</title>
<path fill="none" stroke="black" stroke-width="4.27" d="M2067.24,-10.45C2096.52,-6.89 2133.61,-6.93 2162.75,-22 2174.91,-28.29 2184.61,-39.43 2191.91,-50.65"/>
<polygon fill="black" stroke="black" stroke-width="4.27" points="2188.63,-52.43 2196.85,-59.24 2195.11,-48.71 2188.63,-52.43"/>
<text text-anchor="middle" x="2123.75" y="-58.2" font-family="Times New Roman,serif" font-size="14.00">n=1423</text>
<text text-anchor="middle" x="2123.75" y="-41.7" font-family="Times New Roman,serif" font-size="14.00">p=1.00</text>
<text text-anchor="middle" x="2123.75" y="-25.2" font-family="Times New Roman,serif" font-size="14.00">max=0.0 days</text>
</g>
<!-- ward q start&#45;&gt;ward admit -->
<g id="edge14" class="edge">
<title>ward q start&#45;&gt;ward admit</title>
<path fill="none" stroke="black" stroke-width="4.36" d="M1655.65,-75.5C1683.77,-75.5 1721.86,-75.5 1752.84,-75.5"/>
<polygon fill="black" stroke="black" stroke-width="4.36" points="1752.64,-79.32 1762.64,-75.5 1752.64,-71.69 1752.64,-79.32"/>
<text text-anchor="middle" x="1712.25" y="-111.7" font-family="Times New Roman,serif" font-size="14.00">n=1458</text>
<text text-anchor="middle" x="1712.25" y="-95.2" font-family="Times New Roman,serif" font-size="14.00">p=1.00</text>
<text text-anchor="middle" x="1712.25" y="-78.7" font-family="Times New Roman,serif" font-size="14.00">max=0.1 days</text>
</g>
</g>
</svg>
